<svg width="32" height="32" viewBox="0 0 32 32" fill="none" xmlns="http://www.w3.org/2000/svg">
<rect width="32" height="32" rx="4.8" fill="#96F7E8"/>
<path d="M12.9643 18.6867L10.0137 15.2651C8.4998 13.5096 7.74285 12.6318 8.07866 11.916C8.41448 11.2002 9.58325 11.2002 11.9208 11.2002H15.2792C17.6167 11.2002 18.7855 11.2002 19.1213 11.916C19.4572 12.6318 18.7002 13.5096 17.1863 15.2651L14.2357 18.6867C13.9405 19.029 13.7929 19.2002 13.6 19.2002C13.4071 19.2002 13.2595 19.029 12.9643 18.6867Z" stroke="#004A3F" stroke-width="1.5" stroke-linecap="round"/>
<path d="M13.2004 11.2L12.8994 9.39389C12.8385 9.02852 12.5806 8.72674 12.2292 8.60961L10.4004 8" stroke="#004A3F" stroke-width="1.5" stroke-linecap="round"/>
<path d="M13.6004 19.2002V24.0002M12.4004 24.0002H14.8004" stroke="#004A3F" stroke-width="1.5" stroke-linecap="round"/>
<path d="M19.0885 13.4665C19.6038 14.0393 20.3527 14.3998 21.1861 14.3998C22.7404 14.3998 24.0004 13.1462 24.0004 11.5998C24.0004 10.0534 22.7404 8.7998 21.1861 8.7998C19.7684 8.7998 18.5955 9.84289 18.4004 11.1998" stroke="#004A3F" stroke-width="1.5" stroke-linecap="round"/>
</svg>
