<svg width="32" height="32" viewBox="0 0 32 32" fill="none" xmlns="http://www.w3.org/2000/svg">
<rect width="32" height="32" rx="4.8" fill="#96F7E8"/>
<path d="M8.11594 10.746L7.37509 10.8629L8.11594 10.746ZM8.48235 13.0697L7.7415 13.1866L8.48235 13.0697ZM12.688 10.746L11.9471 10.6292V10.6292L12.688 10.746ZM12.3216 13.0697L11.5807 12.9529L11.5807 12.9529L12.3216 13.0697ZM12.6269 9.24488L12.0851 9.76352L12.0851 9.76352L12.6269 9.24488ZM8.17701 9.24488L7.63524 8.72625L8.17701 9.24488ZM11.1508 14.3999C11.1508 13.9857 10.8151 13.6499 10.4008 13.6499C9.98663 13.6499 9.65084 13.9857 9.65084 14.3999L11.1508 14.3999ZM9.65085 23.1999C9.65085 23.6141 9.98663 23.9499 10.4008 23.9499C10.8151 23.9499 11.1508 23.6141 11.1508 23.1999H9.65085ZM8.11594 10.746L7.37509 10.8629L7.7415 13.1866L8.48235 13.0697L9.22319 12.9529L8.85679 10.6292L8.11594 10.746ZM12.688 10.746L11.9471 10.6292L11.5807 12.9529L12.3216 13.0697L13.0624 13.1866L13.4288 10.8629L12.688 10.746ZM10.175 14.3998V15.1498H10.6289V14.3998V13.6498H10.175V14.3998ZM12.688 10.746L13.4288 10.8629C13.4898 10.4763 13.5513 10.0996 13.5519 9.78858C13.5526 9.44726 13.4827 9.05424 13.1687 8.72625L12.6269 9.24488L12.0851 9.76352C12.0268 9.70259 12.0522 9.64879 12.052 9.7856C12.0516 9.95269 12.0159 10.193 11.9471 10.6292L12.688 10.746ZM8.11594 10.746L8.85679 10.6292C8.78801 10.193 8.75229 9.95269 8.75196 9.7856C8.75168 9.64879 8.77711 9.70259 8.71879 9.76352L8.17701 9.24488L7.63524 8.72625C7.32126 9.05424 7.25128 9.44726 7.25196 9.78858C7.25257 10.0996 7.31415 10.4763 7.37509 10.8629L8.11594 10.746ZM8.48235 13.0697L7.7415 13.1866C7.83353 13.7702 7.99081 14.3825 8.50298 14.7658C8.98195 15.1243 9.61103 15.1498 10.175 15.1498V14.3998V13.6498C9.88983 13.6498 9.69981 13.6382 9.56549 13.6147C9.43682 13.5922 9.40302 13.5658 9.40182 13.5649C9.40078 13.5642 9.39736 13.5618 9.3904 13.5523C9.38246 13.5414 9.36747 13.5178 9.3486 13.4727C9.30796 13.3755 9.26486 13.2172 9.22319 12.9529L8.48235 13.0697ZM12.3216 13.0697L11.5807 12.9529C11.539 13.2172 11.496 13.3755 11.4553 13.4727C11.4364 13.5178 11.4214 13.5414 11.4135 13.5523C11.4065 13.5618 11.4031 13.5642 11.4021 13.5649C11.4009 13.5658 11.3671 13.5922 11.2384 13.6147C11.1041 13.6382 10.9141 13.6498 10.6289 13.6498V14.3998V15.1498C11.1929 15.1498 11.822 15.1243 12.3009 14.7658C12.8131 14.3825 12.9704 13.7702 13.0624 13.1866L12.3216 13.0697ZM12.6269 9.24488L13.1687 8.72625C12.9872 8.53668 12.7534 8.42649 12.5736 8.35852C12.3776 8.28442 12.1573 8.22846 11.9338 8.1858C11.4853 8.10022 10.9564 8.05559 10.4378 8.05033C9.91969 8.04508 9.38284 8.07883 8.92002 8.16228C8.68895 8.20394 8.45912 8.26101 8.2521 8.34026C8.05612 8.41528 7.82086 8.53235 7.63524 8.72625L8.17701 9.24488L8.71879 9.76352C8.68446 9.79938 8.68515 9.78063 8.78836 9.74112C8.88052 9.70584 9.0131 9.66968 9.18618 9.63847C9.53165 9.57618 9.97012 9.54567 10.4226 9.55025C10.8746 9.55484 11.3116 9.59414 11.6526 9.65921C11.8238 9.69188 11.9541 9.72793 12.0432 9.7616C12.1484 9.8014 12.1341 9.81473 12.0851 9.76352L12.6269 9.24488ZM10.4008 14.3999L9.65084 14.3999L9.65085 23.1999H10.4008H11.1508L11.1508 14.3999H10.4008Z" fill="#004A3F"/>
<path d="M16.0016 17.5998L16.0016 8.7998M16.0016 17.5998C14.6761 17.5998 13.6016 18.7482 13.6016 19.6998C13.6016 21.0998 14.6761 23.1998 16.0016 23.1998C17.327 23.1998 18.4016 21.0998 18.4016 19.6998C18.4016 18.7482 17.327 17.5998 16.0016 17.5998Z" stroke="#004A3F" stroke-width="1.5" stroke-linecap="round"/>
<path d="M20.8018 8.7998L21.0495 8.09189C20.82 8.01162 20.566 8.04749 20.3677 8.18814C20.1695 8.32878 20.0518 8.55676 20.0518 8.7998L20.8018 8.7998ZM20.0518 23.1998C20.0518 23.614 20.3875 23.9498 20.8018 23.9498C21.216 23.9498 21.5518 23.614 21.5518 23.1998H20.0518ZM23.4875 11.8565L22.7424 11.9419L23.4875 11.8565ZM23.9852 16.2005L24.7303 16.1151L24.7303 16.1151L23.9852 16.2005ZM22.1863 17.4755L22.1834 16.7255H22.1834L22.1863 17.4755ZM20.4824 16.9212C20.1076 17.0976 19.9468 17.5444 20.1232 17.9192C20.2996 18.294 20.7464 18.4548 21.1212 18.2784L20.4824 16.9212ZM20.8018 8.7998L20.0518 8.7998L20.0518 23.1998H20.8018H21.5518L21.5518 8.7998L20.8018 8.7998ZM23.4875 11.8565L22.7424 11.9419L23.2401 16.2859L23.9852 16.2005L24.7303 16.1151L24.2326 11.7711L23.4875 11.8565ZM22.1863 17.4755L22.1834 16.7255C21.8174 16.7269 21.5051 16.7277 21.2538 16.7456C21.0025 16.7636 20.7351 16.8023 20.4824 16.9212L20.8018 17.5998L21.1212 18.2784C21.1202 18.2789 21.1327 18.2726 21.1708 18.2648C21.2106 18.2566 21.2701 18.2483 21.3606 18.2418C21.5495 18.2283 21.8021 18.227 22.1892 18.2255L22.1863 17.4755ZM23.4875 11.8565L24.2326 11.7711C24.0165 9.88511 22.7093 8.67265 21.0495 8.09189L20.8018 8.7998L20.5541 9.50772C21.8284 9.95361 22.6088 10.7762 22.7424 11.9419L23.4875 11.8565ZM23.9852 16.2005L23.2401 16.2859C23.2683 16.5322 23.2374 16.6273 23.2305 16.644C23.2287 16.6485 23.231 16.642 23.2392 16.6336C23.2465 16.6262 23.2475 16.6283 23.2314 16.6362C23.1887 16.6572 23.0916 16.6871 22.8942 16.705C22.7001 16.7226 22.4723 16.7244 22.1834 16.7255L22.1863 17.4755L22.1892 18.2255C22.4625 18.2244 22.7587 18.2235 23.0299 18.1988C23.2977 18.1745 23.6072 18.1226 23.8917 17.9831C24.2004 17.8317 24.4644 17.5841 24.6159 17.2191C24.7571 16.879 24.7744 16.4999 24.7303 16.1151L23.9852 16.2005Z" fill="#004A3F"/>
</svg>
