<svg width="40" height="40" viewBox="0 0 40 40" fill="none" xmlns="http://www.w3.org/2000/svg">
<rect width="40" height="40" rx="6" fill="#1CC2A9"/>
<path d="M10.7742 19.1439C9.77108 20.2643 9.7495 21.9546 10.6702 23.1437C12.4971 25.5033 14.4967 27.5029 16.8563 29.3298C18.0454 30.2505 19.7357 30.2289 20.8561 29.2258C23.8979 26.5022 26.6835 23.6559 29.3719 20.5279C29.6377 20.2187 29.8039 19.8397 29.8412 19.4336C30.0062 17.638 30.3452 12.4647 28.9403 11.0597C27.5353 9.65481 22.362 9.99377 20.5664 10.1588C20.1603 10.1961 19.7813 10.3623 19.472 10.6281C16.3441 13.3165 13.4978 16.1021 10.7742 19.1439Z" fill="white"/>
<circle cx="1.5" cy="1.5" r="1.5" transform="matrix(1 0 0 -1 24 16)" fill="#1CC2A9"/>
</svg>
