<svg width="16" height="16" viewBox="0 0 16 16" fill="none" xmlns="http://www.w3.org/2000/svg">
<path d="M11.076 2.46161C11.076 2.29839 11.1409 2.14187 11.2563 2.02646C11.3717 1.91105 11.5283 1.84622 11.6915 1.84622H12.9225V0.615435C12.9225 0.452223 12.9874 0.295696 13.1028 0.180288C13.2182 0.0648802 13.3748 4.47074e-05 13.538 4.47074e-05C13.7012 4.47074e-05 13.8578 0.0648802 13.9732 0.180288C14.0886 0.295696 14.1535 0.452223 14.1535 0.615435V1.84622H15.3845C15.5477 1.84622 15.7043 1.91105 15.8197 2.02646C15.9351 2.14187 16 2.29839 16 2.46161C16 2.62482 15.9351 2.78134 15.8197 2.89675C15.7043 3.01216 15.5477 3.077 15.3845 3.077H14.1535V4.30778C14.1535 4.47099 14.0886 4.62751 13.9732 4.74292C13.8578 4.85833 13.7012 4.92317 13.538 4.92317C13.3748 4.92317 13.2182 4.85833 13.1028 4.74292C12.9874 4.62751 12.9225 4.47099 12.9225 4.30778V3.077H11.6915C11.5283 3.077 11.3717 3.01216 11.2563 2.89675C11.1409 2.78134 11.076 2.62482 11.076 2.46161ZM15.8999 6.73857C15.9679 7.15561 16.0014 7.57756 16 8.00012C16.001 9.11035 15.7703 10.2086 15.3225 11.2245C14.8747 12.2405 14.2197 13.1518 13.3995 13.9002L13.2995 13.9925C11.8367 15.286 9.95137 16 7.99859 16C6.04581 16 4.16044 15.286 2.69769 13.9925L2.59767 13.9002C1.40863 12.8115 0.576259 11.3891 0.20963 9.81935C-0.157 8.24958 -0.0407828 6.6057 0.543051 5.10311C1.12689 3.60052 2.1511 2.30932 3.48148 1.39873C4.81186 0.488127 6.38634 0.000604178 7.99859 4.47074e-05C8.42121 -0.00139738 8.84323 0.0320498 9.26034 0.100046C9.41884 0.128499 9.55987 0.217922 9.65318 0.349136C9.7465 0.480349 9.78467 0.642901 9.7595 0.801925C9.73433 0.960949 9.64784 1.10378 9.51857 1.19978C9.38929 1.29578 9.22754 1.3373 9.068 1.31544C8.71419 1.26023 8.35669 1.23194 7.99859 1.23082C6.69415 1.23125 5.4176 1.60844 4.32246 2.31703C3.22733 3.02562 2.36025 4.03544 1.82549 5.22504C1.29073 6.41465 1.11107 7.73338 1.30811 9.02265C1.50516 10.3119 2.07051 11.5168 2.93619 12.4925C3.62245 11.4974 4.58925 10.7289 5.71359 10.2848C5.11055 9.80986 4.67051 9.15888 4.45466 8.42235C4.23881 7.68581 4.25788 6.90033 4.50922 6.17514C4.76055 5.44994 5.23167 4.82108 5.85704 4.376C6.48242 3.93092 7.23096 3.69175 7.99859 3.69175C8.76622 3.69175 9.51476 3.93092 10.1401 4.376C10.7655 4.82108 11.2366 5.44994 11.488 6.17514C11.7393 6.90033 11.7584 7.68581 11.5425 8.42235C11.3267 9.15888 10.8866 9.80986 10.2836 10.2848C11.4079 10.7289 12.3747 11.4974 13.061 12.4925C14.1632 11.2558 14.7712 9.65656 14.769 8.00012C14.7679 7.64208 14.7396 7.28464 14.6843 6.93088C14.6625 6.77136 14.704 6.60964 14.8 6.48039C14.896 6.35114 15.0389 6.26465 15.1979 6.23949C15.357 6.21433 15.5196 6.25249 15.6508 6.34579C15.782 6.43909 15.8715 6.5801 15.8999 6.73857ZM7.99859 9.84629C8.48552 9.84629 8.96151 9.70192 9.36638 9.43144C9.77125 9.16096 10.0868 8.77652 10.2731 8.32672C10.4595 7.87693 10.5082 7.382 10.4132 6.9045C10.3182 6.427 10.0838 5.9884 9.73946 5.64414C9.39515 5.29988 8.95647 5.06544 8.4789 4.97046C8.00132 4.87548 7.5063 4.92423 7.05644 5.11054C6.60658 5.29685 6.22207 5.61236 5.95155 6.01716C5.68102 6.42196 5.53663 6.89788 5.53663 7.38473C5.53866 8.03695 5.7987 8.66188 6.25996 9.12307C6.72123 9.58426 7.34626 9.84426 7.99859 9.84629ZM7.99859 14.7694C9.50107 14.7716 10.961 14.2706 12.1455 13.3463C11.7001 12.6507 11.0868 12.0784 10.3621 11.6819C9.63744 11.2855 8.82465 11.0777 7.99859 11.0777C7.17253 11.0777 6.35975 11.2855 5.63507 11.6819C4.9104 12.0784 4.29713 12.6507 3.85173 13.3463C5.03618 14.2706 6.49611 14.7716 7.99859 14.7694Z" fill="#140841"/>
</svg>
