<svg width="22" height="22" viewBox="0 0 22 22" fill="none" xmlns="http://www.w3.org/2000/svg">
<path d="M0 2C0 0.89543 0.895431 0 2 0H8C9.10457 0 10 0.895431 10 2V8C10 9.10457 9.10457 10 8 10H2C0.89543 10 0 9.10457 0 8V2Z" fill="url(#paint0_linear_3131_16055)"/>
<path d="M0 2C0 0.89543 0.895431 0 2 0H8C9.10457 0 10 0.895431 10 2V8C10 9.10457 9.10457 10 8 10H2C0.89543 10 0 9.10457 0 8V2Z" fill="url(#paint1_linear_3131_16055)"/>
<path d="M0 14C0 12.8954 0.895431 12 2 12H8C9.10457 12 10 12.8954 10 14V20C10 21.1046 9.10457 22 8 22H2C0.89543 22 0 21.1046 0 20V14Z" fill="url(#paint2_linear_3131_16055)"/>
<path d="M0 14C0 12.8954 0.895431 12 2 12H8C9.10457 12 10 12.8954 10 14V20C10 21.1046 9.10457 22 8 22H2C0.89543 22 0 21.1046 0 20V14Z" fill="url(#paint3_linear_3131_16055)"/>
<path d="M12 2C12 0.89543 12.8954 0 14 0H20C21.1046 0 22 0.895431 22 2V8C22 9.10457 21.1046 10 20 10H14C12.8954 10 12 9.10457 12 8V2Z" fill="url(#paint4_linear_3131_16055)"/>
<path d="M12 2C12 0.89543 12.8954 0 14 0H20C21.1046 0 22 0.895431 22 2V8C22 9.10457 21.1046 10 20 10H14C12.8954 10 12 9.10457 12 8V2Z" fill="url(#paint5_linear_3131_16055)"/>
<path d="M12 14C12 12.8954 12.8954 12 14 12H20C21.1046 12 22 12.8954 22 14V20C22 21.1046 21.1046 22 20 22H14C12.8954 22 12 21.1046 12 20V14Z" fill="url(#paint6_linear_3131_16055)"/>
<path d="M12 14C12 12.8954 12.8954 12 14 12H20C21.1046 12 22 12.8954 22 14V20C22 21.1046 21.1046 22 20 22H14C12.8954 22 12 21.1046 12 20V14Z" fill="url(#paint7_linear_3131_16055)"/>
<defs>
<linearGradient id="paint0_linear_3131_16055" x1="1.5" y1="2.5" x2="22" y2="22" gradientUnits="userSpaceOnUse">
<stop stop-color="#F6CFBB"/>
<stop offset="1" stop-color="#DC9270"/>
</linearGradient>
<linearGradient id="paint1_linear_3131_16055" x1="0" y1="0" x2="23.1903" y2="1.33576" gradientUnits="userSpaceOnUse">
<stop stop-color="#F7DE96"/>
<stop offset="1" stop-color="#CAAF63"/>
</linearGradient>
<linearGradient id="paint2_linear_3131_16055" x1="1.5" y1="2.5" x2="22" y2="22" gradientUnits="userSpaceOnUse">
<stop stop-color="#F6CFBB"/>
<stop offset="1" stop-color="#DC9270"/>
</linearGradient>
<linearGradient id="paint3_linear_3131_16055" x1="0" y1="0" x2="23.1903" y2="1.33576" gradientUnits="userSpaceOnUse">
<stop stop-color="#F7DE96"/>
<stop offset="1" stop-color="#CAAF63"/>
</linearGradient>
<linearGradient id="paint4_linear_3131_16055" x1="1.5" y1="2.5" x2="22" y2="22" gradientUnits="userSpaceOnUse">
<stop stop-color="#F6CFBB"/>
<stop offset="1" stop-color="#DC9270"/>
</linearGradient>
<linearGradient id="paint5_linear_3131_16055" x1="0" y1="0" x2="23.1903" y2="1.33576" gradientUnits="userSpaceOnUse">
<stop stop-color="#F7DE96"/>
<stop offset="1" stop-color="#CAAF63"/>
</linearGradient>
<linearGradient id="paint6_linear_3131_16055" x1="1.5" y1="2.5" x2="22" y2="22" gradientUnits="userSpaceOnUse">
<stop stop-color="#F6CFBB"/>
<stop offset="1" stop-color="#DC9270"/>
</linearGradient>
<linearGradient id="paint7_linear_3131_16055" x1="0" y1="0" x2="23.1903" y2="1.33576" gradientUnits="userSpaceOnUse">
<stop stop-color="#F7DE96"/>
<stop offset="1" stop-color="#CAAF63"/>
</linearGradient>
</defs>
</svg>
