<svg width="19" height="19" viewBox="0 0 19 19" fill="none" xmlns="http://www.w3.org/2000/svg">
<path d="M17.7544 14.4398L12.7825 9.46796L17.7544 4.49612C18.3645 3.88603 18.3645 2.89649 17.7544 2.28641L16.6495 1.18155C16.0394 0.571466 15.0499 0.571466 14.4398 1.18155L9.46796 6.1534L4.49611 1.18155C3.88603 0.571466 2.89649 0.571466 2.2864 1.18155L1.18155 2.28641C0.571462 2.89649 0.571462 3.88603 1.18155 4.49612L6.15339 9.46796L1.18155 14.4398C0.571462 15.0499 0.571462 16.0394 1.18155 16.6495L2.2864 17.7544C2.89649 18.3645 3.88603 18.3645 4.49611 17.7544L9.46796 12.7825L14.4398 17.7544C15.0499 18.3645 16.0394 18.3645 16.6495 17.7544L17.7544 16.6495C18.3645 16.0394 18.3645 15.0499 17.7544 14.4398Z" fill="white"/>
</svg>
