<svg width="75" height="76" viewBox="0 0 75 76" fill="none" xmlns="http://www.w3.org/2000/svg">
<path d="M26.5625 45.8125H48.4375M26.5625 30.1875H37.5" stroke="#BCB8B8" stroke-width="3" stroke-linecap="round" stroke-linejoin="round"/>
<path d="M44.2831 65.7829C57.355 64.914 67.7675 54.3538 68.6243 41.0965C68.7919 38.5021 68.7919 35.8154 68.6243 33.221C67.7675 19.9637 57.355 9.40354 44.2831 8.53461C39.8235 8.23816 35.1674 8.23877 30.7169 8.53461C17.645 9.40354 7.23253 19.9637 6.37575 33.221C6.20808 35.8154 6.20808 38.5021 6.37575 41.0965C6.6878 45.925 8.82323 50.3956 11.3372 54.1706C12.7969 56.8135 11.8336 60.112 10.3132 62.9932C9.21691 65.0706 8.66878 66.1093 9.10888 66.8597C9.54899 67.61 10.5321 67.634 12.4982 67.6818C16.3865 67.7765 19.0084 66.6742 21.0896 65.1395C22.27 64.269 22.8602 63.8338 23.267 63.7838C23.6738 63.7338 24.4743 64.0635 26.075 64.7228C27.5138 65.3153 29.1843 65.681 30.7169 65.7829C35.1674 66.0787 39.8235 66.0793 44.2831 65.7829Z" stroke="#BCB8B8" stroke-width="3" stroke-linejoin="round"/>
</svg>
