<svg width="40" height="39" viewBox="0 0 40 39" fill="none" xmlns="http://www.w3.org/2000/svg">
<path d="M38.2809 1.95644C37.4694 0.985232 36.3692 0.439697 35.2221 0.439697C34.0749 0.439697 32.9748 0.985232 32.1632 1.95644L14.6152 24.8011L7.79394 16.6295C7.39242 16.1475 6.91554 15.7651 6.39056 15.5041C5.86557 15.2431 5.30279 15.1086 4.7344 15.1083C4.166 15.1081 3.60313 15.242 3.07798 15.5025C2.55283 15.7631 2.0757 16.145 1.67386 16.6266C1.27203 17.1082 0.953371 17.6799 0.736116 18.3091C0.51886 18.9384 0.407266 19.6127 0.407716 20.2936C0.408166 20.9745 0.520651 21.6487 0.738737 22.2775C0.956824 22.9063 1.27624 23.4774 1.67871 23.9582L12.5457 36.9768C13.6637 38.3161 15.4939 38.3828 16.6202 37.0535C16.6282 37.0442 16.6359 37.035 16.6436 37.0254L20.7326 32.1299L38.2809 9.28521C39.0916 8.31301 39.547 6.99502 39.547 5.62083C39.547 4.24663 39.0916 2.92864 38.2809 1.95644Z" fill="#F0F0F0"/>
</svg>
