<svg width="101" height="101" viewBox="0 0 101 101" fill="none" xmlns="http://www.w3.org/2000/svg">
<path d="M7.50824 71.3356C9.25317 71.3356 10.6677 69.921 10.6677 68.1761C10.6677 66.4312 9.25317 65.0166 7.50824 65.0166C5.7633 65.0166 4.34875 66.4312 4.34875 68.1761C4.34875 69.921 5.7633 71.3356 7.50824 71.3356Z" fill="#A2A3A4"/>
<path d="M97.7344 57.4562C99.4794 57.4562 100.894 56.0416 100.894 54.2967C100.894 52.5518 99.4794 51.1372 97.7344 51.1372C95.9895 51.1372 94.575 52.5518 94.575 54.2967C94.575 56.0416 95.9895 57.4562 97.7344 57.4562Z" fill="#A2A3A4"/>
<path d="M82.534 19.4766C83.2379 18.7126 83.1891 17.524 82.4257 16.8201C81.6623 16.1163 80.4731 16.1656 79.7692 16.929L53.6165 45.3147C52.6235 44.8422 51.5018 44.6066 50.3264 44.6814C46.6428 44.9164 43.8461 48.0936 44.0814 51.7776C44.3164 55.4613 47.4942 58.2579 51.1782 58.0226C54.8618 57.7876 57.6577 54.6098 57.4226 50.9264C57.3493 49.7819 56.9927 48.7239 56.4239 47.8149L64.7705 38.7563C68.2282 42.3372 70.3545 47.203 70.3554 52.5743C70.3545 57.5035 68.5617 62.004 65.5943 65.4794C64.6839 64.6531 63.4787 64.145 62.1519 64.145C59.3182 64.145 57.0212 66.4423 57.0212 69.2759C57.0212 69.9629 57.1577 70.6171 57.4032 71.2155C55.2421 72.0207 52.9067 72.467 50.4621 72.467C44.9658 72.467 39.9991 70.2422 36.3961 66.6412C32.7948 63.0382 30.5706 58.0709 30.5706 52.5749C30.5706 47.1815 32.7121 42.2977 36.1958 38.7125C36.5578 38.3404 36.5493 37.7449 36.1766 37.3829C35.8045 37.0215 35.2089 37.0302 34.8475 37.4024C31.038 41.321 28.6897 46.6785 28.6897 52.5749C28.6899 64.6 38.4373 74.3465 50.4621 74.3476C53.2842 74.3476 55.9759 73.8012 58.4501 72.8233C59.3842 73.7975 60.695 74.4069 62.1513 74.4069C64.9841 74.4069 67.2811 72.1098 67.2811 69.2762C67.2811 68.464 67.0879 67.6989 66.7521 67.0164C70.1619 63.1736 72.2346 58.1174 72.2346 52.5749C72.2355 46.6624 69.8721 41.2959 66.0443 37.3741L78.2701 24.1054C84.6319 30.9102 88.5269 40.0427 88.5269 50.0942C88.5269 60.6083 84.268 70.1186 77.3785 77.0106C70.4869 83.9 60.9763 88.1583 50.4621 88.1589C45.9606 88.1589 41.6455 87.3755 37.6388 85.9414C37.7635 85.4988 37.8349 85.0333 37.8349 84.5503C37.8349 81.7167 35.5379 79.4196 32.7042 79.4196C31.0899 79.4196 29.6523 80.1667 28.7117 81.3316C26.8646 80.0442 25.1349 78.5984 23.5466 77.0106C16.6563 70.1186 12.3977 60.6083 12.3977 50.0942C12.3977 39.7767 16.4989 30.4263 23.162 23.5685C23.524 23.1961 23.5153 22.6011 23.1431 22.2386C22.7707 21.8775 22.1757 21.8859 21.8143 22.2583C14.8234 29.4491 10.5168 39.2737 10.5173 50.0945C10.5176 63.7452 17.3675 75.7915 27.8145 82.9964C27.6591 83.487 27.5736 84.0086 27.5736 84.5506C27.5736 87.3845 29.8706 89.6815 32.7042 89.6815C34.3769 89.6815 35.8578 88.8778 36.7945 87.639C41.0584 89.192 45.6607 90.0398 50.4621 90.0398C72.5235 90.039 90.4055 72.1558 90.4072 50.095C90.4072 39.5019 86.2786 29.8672 79.5472 22.7196L82.534 19.4766ZM51.0179 55.5205C48.7155 55.6675 46.7302 53.9203 46.5832 51.6179C46.4363 49.3152 48.184 47.3299 50.4858 47.183C52.7882 47.036 54.7744 48.7832 54.9214 51.0858C55.0683 53.3885 53.3209 55.3738 51.0179 55.5205Z" fill="white"/>
</svg>
