<svg width="17" height="16" viewBox="0 0 17 16" fill="none" xmlns="http://www.w3.org/2000/svg">
<path d="M6.25 10.0005C6.25 8.11487 6.25 7.17206 6.83579 6.58627C7.42157 6.00049 8.36438 6.00049 10.25 6.00049L10.9167 6.00049C12.8023 6.00049 13.7451 6.00049 14.3309 6.58628C14.9167 7.17206 14.9167 8.11487 14.9167 10.0005V10.6672C14.9167 12.5528 14.9167 13.4956 14.3309 14.0814C13.7451 14.6672 12.8023 14.6672 10.9167 14.6672H10.25C8.36438 14.6672 7.42157 14.6672 6.83579 14.0814C6.25 13.4956 6.25 12.5528 6.25 10.6672L6.25 10.0005Z" stroke="#FAFAFA" stroke-linecap="round" stroke-linejoin="round"/>
<path d="M11.5834 6.00041C11.5819 4.02901 11.552 3.00788 10.9782 2.30869C10.8674 2.17367 10.7436 2.04986 10.6085 1.93905C9.87098 1.33374 8.77515 1.33374 6.5835 1.33374C4.39184 1.33374 3.29601 1.33374 2.55845 1.93905C2.42342 2.04986 2.29961 2.17367 2.1888 2.30869C1.5835 3.04626 1.5835 4.14209 1.5835 6.33374C1.5835 8.52539 1.5835 9.62122 2.1888 10.3588C2.29961 10.4938 2.42342 10.6176 2.55845 10.7284C3.25763 11.3022 4.27877 11.3321 6.25016 11.3337" stroke="#FAFAFA" stroke-linecap="round" stroke-linejoin="round"/>
</svg>
