<svg width="24" height="25" viewBox="0 0 24 25" fill="none" xmlns="http://www.w3.org/2000/svg">
<path d="M7.00021 2.75C5.70003 2.87853 4.82485 3.16902 4.17163 3.82554C3 5.00309 3 6.89832 3 10.6888V14.7092C3 18.4997 3 20.3949 4.17163 21.5725C5.34327 22.75 7.22898 22.75 11.0004 22.75H13.0005C16.7719 22.75 18.6577 22.75 19.8293 21.5725C20.8926 20.5038 20.9909 18.8556 21 15.7266" stroke="#A2A3A4" stroke-width="1.5" stroke-linecap="round" stroke-linejoin="round"/>
<path d="M12.0068 7.58559C11.916 7.18146 11.5147 6.92744 11.1106 7.01824C10.7065 7.10904 10.4524 7.51027 10.5432 7.91441L12.0068 7.58559ZM12.0893 11.3746L12.8211 11.2102L12.0893 11.3746ZM19.8099 7.98042C19.9027 7.57673 19.6506 7.17428 19.2469 7.08154C18.8432 6.9888 18.4408 7.24088 18.348 7.64458L19.8099 7.98042ZM18.2607 11.3746L17.5297 11.2067L17.5289 11.2102L18.2607 11.3746ZM12.4886 12.0027L12.9141 11.3852H12.9141L12.4886 12.0027ZM17.8614 12.0027L18.287 12.6203V12.6203L17.8614 12.0027ZM22.2083 6.51017C22.2083 6.09595 21.8725 5.76017 21.4583 5.76017C21.0441 5.76017 20.7083 6.09595 20.7083 6.51017H22.2083ZM20.7083 11.1875C20.7083 11.6017 21.0441 11.9375 21.4583 11.9375C21.8725 11.9375 22.2083 11.6017 22.2083 11.1875H20.7083ZM9.75 5.875C9.75 6.01448 9.69808 6.09501 9.69714 6.09653C9.69283 6.10348 9.70458 6.08354 9.75231 6.03702C9.8477 5.94404 10.0116 5.81693 10.2501 5.66249C10.7213 5.35742 11.3827 5.01001 12.1017 4.67944C12.8173 4.35043 13.5674 4.04833 14.2071 3.83022C14.5272 3.72107 14.8118 3.63565 15.0457 3.57834C15.2924 3.51791 15.4386 3.5 15.5 3.5V2C15.2537 2 14.9659 2.05354 14.6888 2.12142C14.399 2.19243 14.07 2.29218 13.723 2.41048C13.0285 2.64727 12.2306 2.96919 11.4751 3.3166C10.7229 3.66245 9.99012 4.04388 9.4349 4.40337C9.16022 4.58121 8.90287 4.77031 8.70531 4.96287C8.60655 5.05913 8.5039 5.17431 8.42181 5.30688C8.34309 5.43403 8.25 5.63069 8.25 5.875H9.75ZM22.75 5.875C22.75 5.63069 22.6569 5.43403 22.5782 5.30688C22.4961 5.17431 22.3934 5.05913 22.2947 4.96287C22.0971 4.77031 21.8398 4.58121 21.5651 4.40337C21.0099 4.04388 20.2771 3.66245 19.5249 3.3166C18.7694 2.96919 17.9715 2.64727 17.277 2.41048C16.93 2.29218 16.601 2.19243 16.3112 2.12142C16.0341 2.05354 15.7463 2 15.5 2V3.5C15.5614 3.5 15.7076 3.51791 15.9543 3.57834C16.1882 3.63565 16.4728 3.72107 16.7929 3.83022C17.4326 4.04833 18.1827 4.35043 18.8983 4.67944C19.6173 5.01001 20.2787 5.35742 20.7499 5.66249C20.9884 5.81693 21.1523 5.94404 21.2477 6.03702C21.2954 6.08354 21.3072 6.10348 21.3029 6.09653C21.3019 6.09501 21.25 6.01448 21.25 5.875H22.75ZM21.25 5.875C21.25 5.73552 21.3019 5.65499 21.3029 5.65347C21.3072 5.64652 21.2954 5.66646 21.2477 5.71298C21.1523 5.80596 20.9884 5.93308 20.7499 6.08751C20.2787 6.39258 19.6173 6.73999 18.8983 7.07056C18.1827 7.39957 17.4326 7.70167 16.7929 7.91978C16.4728 8.02893 16.1882 8.11436 15.9543 8.17166C15.7076 8.23209 15.5614 8.25 15.5 8.25V9.75C15.7463 9.75 16.0341 9.69646 16.3112 9.62858C16.601 9.55757 16.93 9.45782 17.277 9.33952C17.9715 9.10273 18.7694 8.78081 19.5249 8.4334C20.2771 8.08755 21.0099 7.70612 21.5651 7.34663C21.8398 7.16879 22.0971 6.97969 22.2947 6.78713C22.3934 6.69087 22.4961 6.57569 22.5782 6.44312C22.6569 6.31597 22.75 6.11931 22.75 5.875H21.25ZM8.25 5.875C8.25 6.11931 8.34309 6.31597 8.42181 6.44312C8.5039 6.57569 8.60655 6.69087 8.70531 6.78713C8.90287 6.97969 9.16022 7.16879 9.4349 7.34663C9.99012 7.70612 10.7229 8.08755 11.4751 8.4334C12.2306 8.78081 13.0285 9.10273 13.723 9.33952C14.07 9.45782 14.399 9.55757 14.6888 9.62858C14.9659 9.69646 15.2537 9.75 15.5 9.75V8.25C15.4386 8.25 15.2924 8.23209 15.0457 8.17166C14.8118 8.11436 14.5272 8.02893 14.2071 7.91978C13.5674 7.70167 12.8173 7.39957 12.1017 7.07056C11.3827 6.73999 10.7213 6.39258 10.2501 6.08751C10.0116 5.93308 9.8477 5.80596 9.75231 5.71298C9.70458 5.66646 9.69283 5.64652 9.69714 5.65347C9.69808 5.65499 9.75 5.73552 9.75 5.875H8.25ZM10.5432 7.91441L11.3576 11.539L12.8211 11.2102L12.0068 7.58559L10.5432 7.91441ZM18.348 7.64458L17.5297 11.2067L18.9916 11.5425L19.8099 7.98042L18.348 7.64458ZM12.063 12.6203C12.9408 13.2251 14.0817 13.5 15.175 13.5C16.2683 13.5 17.4092 13.2251 18.287 12.6203L17.4359 11.3852C16.8676 11.7767 16.0451 12 15.175 12C14.3049 12 13.4824 11.7767 12.9141 11.3852L12.063 12.6203ZM17.5289 11.2102C17.5037 11.3225 17.4586 11.3695 17.4359 11.3852L18.287 12.6203C18.6936 12.3401 18.9061 11.9232 18.9924 11.539L17.5289 11.2102ZM11.3576 11.539C11.4439 11.9232 11.6564 12.3401 12.063 12.6203L12.9141 11.3852C12.8914 11.3695 12.8463 11.3225 12.8211 11.2102L11.3576 11.539ZM20.7083 6.51017V11.1875H22.2083V6.51017H20.7083Z" fill="#A2A3A4"/>
</svg>
