<svg width="20" height="20" viewBox="0 0 20 20" fill="none" xmlns="http://www.w3.org/2000/svg">
<path d="M1.6665 10.0004C1.6665 7.0525 1.6665 5.57855 2.54384 4.59449C2.68416 4.4371 2.83882 4.29153 3.00605 4.15947C4.05162 3.33374 5.61769 3.33374 8.74984 3.33374H11.2498C14.382 3.33374 15.9481 3.33374 16.9936 4.15947C17.1609 4.29153 17.3155 4.4371 17.4558 4.59449C18.3332 5.57855 18.3332 7.0525 18.3332 10.0004C18.3332 12.9483 18.3332 14.4223 17.4558 15.4063C17.3155 15.5637 17.1609 15.7093 16.9936 15.8413C15.9481 16.6671 14.382 16.6671 11.2498 16.6671H8.74984C5.61769 16.6671 4.05162 16.6671 3.00605 15.8413C2.83882 15.7093 2.68416 15.5637 2.54384 15.4063C1.6665 14.4223 1.6665 12.9483 1.6665 10.0004Z" stroke="#FAFAFA" stroke-width="1.25" stroke-linecap="round" stroke-linejoin="round"/>
<path d="M8.33301 13.3337H9.58301" stroke="#FAFAFA" stroke-width="1.25" stroke-miterlimit="10" stroke-linecap="round" stroke-linejoin="round"/>
<path d="M12.083 13.3337L14.9997 13.3337" stroke="#FAFAFA" stroke-width="1.25" stroke-miterlimit="10" stroke-linecap="round" stroke-linejoin="round"/>
<path d="M1.6665 7.50049H18.3332" stroke="#FAFAFA" stroke-width="1.25" stroke-linejoin="round"/>
</svg>
