<svg width="28" height="28" viewBox="0 0 28 28" fill="none" xmlns="http://www.w3.org/2000/svg">
<path d="M4.10456 12.024C3.65182 10.771 3.42545 10.1445 3.52198 9.74308C3.62755 9.30396 3.93983 8.96164 4.33898 8.84743C4.70392 8.74302 5.27162 8.99534 6.40701 9.49997C7.41129 9.94632 7.91342 10.1695 8.38521 10.1571C8.90466 10.1434 9.40436 9.93509 9.80187 9.56651C10.1629 9.23175 10.405 8.6983 10.8894 7.63139L11.9567 5.28011C12.8483 3.31603 13.2941 2.33398 14 2.33398C14.7059 2.33398 15.1517 3.31603 16.0433 5.28011L17.1106 7.63139C17.595 8.6983 17.8371 9.23175 18.1981 9.56651C18.5956 9.93509 19.0953 10.1434 19.6148 10.1571C20.0866 10.1695 20.5887 9.94632 21.593 9.49997C22.7284 8.99534 23.2961 8.74302 23.661 8.84743C24.0602 8.96164 24.3724 9.30396 24.478 9.74308C24.5746 10.1445 24.3482 10.771 23.8954 12.024L21.9494 17.4099C21.1169 19.7138 20.7007 20.8657 19.8297 21.5165C18.9586 22.1673 17.833 22.1673 15.5817 22.1673L12.4183 22.1673C10.167 22.1673 9.0414 22.1673 8.17035 21.5165C7.29929 20.8657 6.88306 19.7138 6.05059 17.4099L4.10456 12.024Z" fill="#F5DFA1"/>
</svg>
