<svg width="16" height="16" viewBox="0 0 16 16" fill="none" xmlns="http://www.w3.org/2000/svg">
<path d="M2.34546 6.87067C2.08675 6.15467 1.9574 5.79667 2.01256 5.56726C2.07289 5.31634 2.25133 5.12073 2.47942 5.05547C2.68795 4.9958 3.01235 5.13998 3.66115 5.42834C4.23502 5.6834 4.52196 5.81093 4.79155 5.80384C5.08838 5.79602 5.37392 5.67699 5.60107 5.46637C5.80737 5.27508 5.94574 4.97025 6.22249 4.36059L6.8324 3.017C7.34187 1.89466 7.5966 1.3335 8 1.3335C8.4034 1.3335 8.65813 1.89466 9.1676 3.017L9.77751 4.36059C10.0543 4.97025 10.1926 5.27508 10.3989 5.46637C10.6261 5.67699 10.9116 5.79602 11.2085 5.80384C11.478 5.81093 11.765 5.6834 12.3388 5.42834C12.9876 5.13998 13.312 4.9958 13.5206 5.05547C13.7487 5.12073 13.9271 5.31634 13.9874 5.56726C14.0426 5.79667 13.9132 6.15467 13.6545 6.87066L12.5425 9.94828C12.0668 11.2648 11.829 11.9231 11.3312 12.295C10.8335 12.6668 10.1903 12.6668 8.90384 12.6668H7.09616C5.80973 12.6668 5.16651 12.6668 4.66877 12.295C4.17102 11.9231 3.93318 11.2648 3.45748 9.94828L2.34546 6.87067Z" fill="url(#paint0_linear_3090_50664)"/>
<defs>
<linearGradient id="paint0_linear_3090_50664" x1="8" y1="1.3335" x2="8" y2="12.6668" gradientUnits="userSpaceOnUse">
<stop stop-color="#F8D500"/>
<stop offset="1" stop-color="#FB970A"/>
</linearGradient>
</defs>
</svg>
