<svg width="18" height="18" viewBox="0 0 18 18" fill="none" xmlns="http://www.w3.org/2000/svg">
<circle cx="9.09294" cy="8.84344" r="8.78459" fill="#6B00D6"/>
<path d="M6.00659 8.08086C5.45431 8.08086 5.00659 8.52857 5.00659 9.08086C5.00659 9.63314 5.45431 10.0809 6.00659 10.0809L6.00659 8.08086ZM12.8867 9.78796C13.2772 9.39744 13.2772 8.76427 12.8867 8.37375L6.52269 2.00979C6.13217 1.61926 5.499 1.61926 5.10848 2.00979C4.71796 2.40031 4.71796 3.03348 5.10848 3.424L10.7653 9.08086L5.10848 14.7377C4.71796 15.1282 4.71796 15.7614 5.10848 16.1519C5.499 16.5424 6.13217 16.5424 6.52269 16.1519L12.8867 9.78796ZM6.00659 10.0809L12.1795 10.0809L12.1795 8.08086L6.00659 8.08086L6.00659 10.0809Z" fill="white"/>
</svg>
