<svg width="175" height="16" viewBox="0 0 175 16" fill="none" xmlns="http://www.w3.org/2000/svg">
<g opacity="0.2">
<rect x="87.6296" y="0.818848" width="10.0922" height="10.0922" transform="rotate(45.1302 87.6296 0.818848)" fill="white"/>
<path d="M96.129 8.23921L97.6515 9.76861L99.1809 8.24614L97.6584 6.71674L96.129 8.23921ZM174.772 8.41786L173.249 6.88846L171.72 8.41093L173.242 9.94033L174.772 8.41786ZM97.655 8.24268L97.6544 8.50698L173.245 8.67869L173.246 8.4144L173.246 8.1501L97.6556 7.97838L97.655 8.24268Z" fill="white"/>
<path d="M0.4513 8.02144L1.97377 9.55084L3.50317 8.02837L1.9807 6.49897L0.4513 8.02144ZM79.0938 8.20009L77.5713 6.67069L76.0419 8.19316L77.5644 9.72256L79.0938 8.20009ZM1.97723 8.0249L1.97663 8.2892L77.5672 8.46092L77.5678 8.19662L77.5684 7.93232L1.97783 7.7606L1.97723 8.0249Z" fill="white"/>
</g>
</svg>
