<svg width="20" height="20" viewBox="0 0 20 20" fill="none" xmlns="http://www.w3.org/2000/svg">
<g clip-path="url(#clip0_3194_16488)">
<path d="M10.9525 2.33796V4.82749L9.97107 5.7599L8.98958 4.82749V2.33796H10.9525ZM17.8229 8.86481V10.7296H15.2024L14.2209 9.79722L15.2024 8.86481H17.8229ZM4.73977 8.86481L5.72125 9.79722L4.73977 10.7296H2.11921V8.86481H4.73977ZM9.97107 13.8345L10.9525 14.767V17.2565H8.98958V14.767L9.97107 13.8345ZM12.9155 0.473145H7.02662V5.60139L9.97107 8.39861L12.9155 5.60139V0.473145ZM19.7859 7H14.3877L11.4433 9.79722L14.3877 12.5944H19.7859V7ZM5.5544 7H0.15625V12.5944H5.5544L8.49884 9.79722L5.5544 7ZM9.97107 11.1958L7.02662 13.9931V19.1213H12.9155V13.9931L9.97107 11.1958Z" fill="#A2A3A4"/>
</g>
<defs>
<clipPath id="clip0_3194_16488">
<rect width="20" height="19" fill="white" transform="translate(0 0.25)"/>
</clipPath>
</defs>
</svg>
