<svg width="393" height="635" viewBox="0 0 393 635" fill="none" xmlns="http://www.w3.org/2000/svg">
<g opacity="0.1">
<path fill-rule="evenodd" clip-rule="evenodd" d="M67.909 238.715C67.909 238.715 91.2929 257.326 97.8303 264.145C104.368 270.964 125.84 273.998 130.047 275.894C134.254 277.79 144.335 294.844 144.335 294.844C144.335 294.844 150.144 307.454 151.535 316.495C152.93 325.536 171.577 335.771 171.577 335.771L189.268 344.868C189.268 344.868 161.854 307.35 158.795 298.26C155.731 289.163 159.483 280.83 151.54 275.9C143.592 270.977 124.273 263.019 122.261 253.922C120.248 244.826 88.8054 212.995 78.8451 207.314C68.8848 201.627 39.3428 187.989 39.3428 187.989C39.3428 187.989 58.5353 226.221 67.9141 238.727L67.909 238.715Z" fill="#633BBC"/>
<path fill-rule="evenodd" clip-rule="evenodd" d="M-58.3239 -6.18427C-58.3239 -6.18427 -14.6908 33.4509 5.4269 43.8951C5.4269 43.8951 30.5905 41.6056 33.9931 43.8951C37.3958 46.1846 52.3413 57.472 53.8884 61.8663C55.4355 66.2545 56.4669 75.6647 59.5561 80.0591C62.6504 84.4472 90.4734 100.757 100.267 102.64C110.06 104.523 133.763 110.167 138.399 113.934C143.035 117.7 141.493 126.476 144.067 130.871C146.645 135.259 162.101 142.792 168.285 147.808C174.468 152.824 193.787 151.575 199.586 154.707C205.386 157.846 217.753 167.25 217.753 167.25L222.384 172.266C222.384 172.266 219.8 182.932 222.384 186.065C224.967 189.203 235.787 191.708 235.787 191.708C235.787 191.708 227.541 181.67 227.541 175.399C227.541 169.127 222.384 164.105 222.384 164.105C222.384 164.105 196.624 149.679 193.014 145.912C189.409 142.146 156.939 109.527 154.366 103.883C151.787 98.2395 146.12 82.5578 143.03 78.1635C139.936 73.7753 110.566 64.365 103.351 60.5984C96.1362 56.8319 86.8534 45.5445 82.4749 36.1342C78.1015 26.724 69.8551 0.67801 67.2766 -2.75621C64.6981 -6.19044 59.0303 -6.19043 59.0303 -6.19043H-58.334L-58.3239 -6.18427Z" fill="#633BBC"/>
<path fill-rule="evenodd" clip-rule="evenodd" d="M376.896 300.679C376.896 300.679 400.28 319.29 406.818 326.11C413.355 332.929 434.828 335.963 439.034 337.859C443.241 339.754 453.322 356.808 453.322 356.808C453.322 356.808 459.132 369.419 460.522 378.46C461.918 387.501 480.564 397.736 480.564 397.736L498.255 406.832C498.255 406.832 470.841 369.314 467.783 360.224C464.719 351.128 468.47 342.795 460.527 337.865C452.579 332.941 433.26 324.983 431.248 315.887C429.236 306.791 397.793 274.959 387.832 269.279C377.872 263.592 348.33 249.954 348.33 249.954C348.33 249.954 367.523 288.186 376.901 300.692L376.896 300.679Z" fill="#633BBC"/>
<path fill-rule="evenodd" clip-rule="evenodd" d="M382.836 74.4032C382.836 74.4032 413.904 108.278 432.369 121.448C450.833 134.619 460.955 128.975 460.955 128.975C460.955 128.975 477.261 134.767 487.236 144.103C497.212 153.44 495.665 170.377 501.848 179.787C508.032 189.197 533.539 182.612 533.539 182.612L571.762 234.008L597.027 266.35C597.027 266.35 569.755 223.066 565.174 213.662C560.593 204.251 528.903 149.679 522.714 140.269C516.531 130.859 508.026 132.742 501.843 119.571C495.66 106.401 488.703 91.3404 478.651 80.0531C468.605 68.7595 447.754 51.8223 436.535 44.2953C425.316 36.7683 407.539 29.2413 407.539 29.2413L376.622 20.7727L346.478 0.715088H208.116C208.116 0.715088 275.983 57.4721 306.824 71.5844C318.493 76.9204 382.83 74.4093 382.83 74.4093L382.836 74.4032Z" fill="#633BBC"/>
<path fill-rule="evenodd" clip-rule="evenodd" d="M-574.501 196.638C-574.501 196.638 -520.397 244.28 -509.537 255.74C-498.677 267.199 -469.504 266.331 -459.847 278.357C-450.19 290.383 -432.873 295.652 -420.749 311.992C-408.625 328.326 -368.47 340.364 -354.783 359.64C-341.092 378.916 -317.809 386.812 -306.074 395.515C-294.339 404.217 -257.972 425.297 -257.972 425.297C-257.972 425.297 -302.368 400.002 -309.608 374.706C-316.849 349.411 -312.738 317.888 -312.738 317.888C-312.738 317.888 -303.435 315.408 -312.738 294.464C-322.041 273.52 -314.27 260.171 -325.949 242.606C-337.629 225.041 -343.215 193.419 -335.227 178.666C-327.239 163.914 -308.628 120.598 -312.738 94.8295C-316.849 69.0543 -280.719 50.0861 -280.719 50.0861C-280.719 50.0861 -226.084 56.4129 -219.516 66.9495C-212.948 77.4922 -164.866 94.8295 -164.866 94.8295C-164.866 94.8295 -126.446 97.4144 -121.208 94.8295C-115.975 92.2446 -99.5074 109.108 -86.0938 123.86C-72.6804 138.619 -70.0663 129.627 -51.4401 145.42C-32.8089 161.212 -29.2495 185.055 -18.5612 196.644C-18.5612 196.644 -30.5236 171.195 -34.2853 145.42C-34.2853 145.42 -15.1484 147.986 -1.29504 152.202C12.5583 156.418 19.1968 155.482 28.7678 164.382C38.3387 173.281 48.8754 178.9 48.8754 178.9C48.8754 178.9 32.666 161.101 28.7678 151.26C24.8696 141.425 21.7906 131.584 16.7902 127.836C11.7899 124.088 -44.8118 106.708 -59.3123 98.5345C-73.8128 90.3613 -86.0938 63.4291 -86.0938 63.4291C-86.0938 63.4291 -119.281 6.67209 -140.218 5.81046C-161.155 4.94882 -197.856 -7.31715 -211.219 -18.783C-224.582 -30.2489 -268.68 -95.3945 -268.68 -95.3945H-567.139L-574.501 196.638Z" fill="#633BBC"/>
<path fill-rule="evenodd" clip-rule="evenodd" d="M-95.7472 310.697C-95.7472 310.697 -72.3634 329.309 -65.826 336.128C-59.2886 342.947 -37.8159 345.981 -33.6093 347.877C-29.4027 349.772 -19.3211 366.827 -19.3211 366.827C-19.3211 366.827 -13.5118 379.437 -12.1214 388.478C-10.726 397.519 7.92049 407.754 7.92049 407.754L25.6113 416.85C25.6113 416.85 -1.80216 379.333 -4.86103 370.242C-7.92495 361.146 -4.1734 352.813 -12.1163 347.883C-20.0643 342.959 -39.3832 335.001 -41.3955 325.905C-43.4078 316.809 -74.8509 284.978 -84.8111 279.297C-94.7714 273.61 -124.313 259.972 -124.313 259.972C-124.313 259.972 -105.121 298.204 -95.7422 310.71L-95.7472 310.697Z" fill="#633BBC"/>
</g>
</svg>
