<svg width="24" height="25" viewBox="0 0 24 25" fill="none" xmlns="http://www.w3.org/2000/svg">
<path d="M9 22.9116H15C20 22.9116 22 20.9116 22 15.9116V9.91162C22 4.91162 20 2.91162 15 2.91162H9C4 2.91162 2 4.91162 2 9.91162V15.9116C2 20.9116 4 22.9116 9 22.9116Z" stroke="white" stroke-width="1.5" stroke-linecap="round" stroke-linejoin="round"/>
<path d="M12 16.4116C13.933 16.4116 15.5 14.8446 15.5 12.9116C15.5 10.9786 13.933 9.41162 12 9.41162C10.067 9.41162 8.5 10.9786 8.5 12.9116C8.5 14.8446 10.067 16.4116 12 16.4116Z" stroke="white" stroke-width="1.5" stroke-linecap="round" stroke-linejoin="round"/>
<path d="M17.6361 7.91162H17.6477" stroke="white" stroke-width="1.5" stroke-linecap="round" stroke-linejoin="round"/>
</svg>
