<svg width="20" height="20" viewBox="0 0 20 20" fill="none" xmlns="http://www.w3.org/2000/svg">
<path d="M8.3335 15.8333C8.3335 16.75 9.0835 17.5 10.0002 17.5C10.9168 17.5 11.6668 16.75 11.6668 15.8333C11.6668 14.9167 10.9168 14.1667 10.0002 14.1667C9.0835 14.1667 8.3335 14.9167 8.3335 15.8333Z" stroke="#FAFAFA" stroke-width="1.25"/>
<path d="M8.3335 4.16659C8.3335 5.08325 9.0835 5.83325 10.0002 5.83325C10.9168 5.83325 11.6668 5.08325 11.6668 4.16659C11.6668 3.24992 10.9168 2.49992 10.0002 2.49992C9.0835 2.49992 8.3335 3.24992 8.3335 4.16659Z" stroke="#FAFAFA" stroke-width="1.25"/>
<path d="M8.3335 10.0001C8.3335 10.9167 9.0835 11.6667 10.0002 11.6667C10.9168 11.6667 11.6668 10.9167 11.6668 10.0001C11.6668 9.08341 10.9168 8.33341 10.0002 8.33341C9.0835 8.33341 8.3335 9.08341 8.3335 10.0001Z" stroke="#FAFAFA" stroke-width="1.25"/>
</svg>
