<svg width="20" height="21" viewBox="0 0 20 21" fill="none" xmlns="http://www.w3.org/2000/svg">
<path d="M3.7 6.57881C3.99022 5.56303 4.78423 4.76903 5.8 4.47881V4.47881C8.54507 3.6945 11.4549 3.6945 14.2 4.47881V4.47881C15.2158 4.76903 16.0098 5.56303 16.3 6.57881V6.57881C17.0843 9.32388 17.0843 12.2337 16.3 14.9788V14.9788C16.0098 15.9946 15.2158 16.7886 14.2 17.0788V17.0788C11.4549 17.8631 8.54508 17.8631 5.8 17.0788V17.0788C4.78423 16.7886 3.99022 15.9946 3.7 14.9788V14.9788C2.91569 12.2337 2.91569 9.32388 3.7 6.57881V6.57881Z" stroke="white" stroke-width="1.66667" stroke-linejoin="round"/>
<path d="M7.27256 8.96046C7.41564 8.53125 7.75244 8.19444 8.18166 8.05137V8.05137C9.36186 7.65797 10.6378 7.65797 11.818 8.05137V8.05137C12.2472 8.19444 12.584 8.53125 12.7271 8.96046V8.96046C13.1205 10.1407 13.1205 11.4166 12.7271 12.5968V12.5968C12.584 13.026 12.2472 13.3628 11.818 13.5059V13.5059C10.6378 13.8993 9.36186 13.8993 8.18166 13.5059V13.5059C7.75244 13.3628 7.41564 13.026 7.27256 12.5968V12.5968C6.87916 11.4166 6.87916 10.1407 7.27256 8.96046V8.96046Z" fill="white"/>
</svg>
