<svg width="20" height="21" viewBox="0 0 20 21" fill="none" xmlns="http://www.w3.org/2000/svg">
<path d="M3.7 6.3C3.99022 5.28423 4.78423 4.49022 5.8 4.2V4.2C8.54507 3.41569 11.4549 3.41569 14.2 4.2V4.2C15.2158 4.49022 16.0098 5.28423 16.3 6.3V6.3C17.0843 9.04507 17.0843 11.9549 16.3 14.7V14.7C16.0098 15.7158 15.2158 16.5098 14.2 16.8V16.8C11.4549 17.5843 8.54508 17.5843 5.8 16.8V16.8C4.78423 16.5098 3.99022 15.7158 3.7 14.7V14.7C2.91569 11.9549 2.91569 9.04507 3.7 6.3V6.3Z" stroke="white" stroke-width="1.66667" stroke-linejoin="round"/>
</svg>
