<svg width="25" height="24" viewBox="0 0 25 24" fill="none" xmlns="http://www.w3.org/2000/svg">
<path d="M15.5 2L19 5.5M19 5.5L22.5 9M19 5.5L22.5 2M19 5.5L15.5 9" stroke="#E31C1C" stroke-width="1.5" stroke-linecap="round" stroke-linejoin="round"/>
<path d="M6.59881 19.5C5.2987 19.3721 4.32475 18.9816 3.67157 18.3284C2.5 17.1569 2.5 15.2712 2.5 11.5V11C2.5 7.22876 2.5 5.34315 3.67157 4.17157C4.84315 3 6.72876 3 10.5 3H12M7 18C6.79454 19.0019 5.87769 21.1665 6.81569 21.8651C7.306 22.2218 8.08729 21.8408 9.64987 21.0789C10.7465 20.5441 11.8562 19.9309 13.0546 19.655C13.4931 19.5551 13.9395 19.5125 14.5 19.5C18.2712 19.5 20.1569 19.5 21.3284 18.3284C22.447 17.2098 22.4976 15.4403 22.4999 12" stroke="#E31C1C" stroke-width="1.5" stroke-linecap="round"/>
<path d="M8.5 14H14.5M8.5 9H11.5" stroke="#E31C1C" stroke-width="1.5" stroke-linecap="round" stroke-linejoin="round"/>
</svg>
