<svg width="43" height="42" viewBox="0 0 43 42" fill="none" xmlns="http://www.w3.org/2000/svg">
<path d="M21.3382 30.5458L13.9028 35.025C13.5743 35.234 13.2309 35.3236 12.8726 35.2937C12.5143 35.2639 12.2007 35.1444 11.932 34.9354C11.6632 34.7264 11.4542 34.4654 11.3049 34.1525C11.1556 33.8395 11.1257 33.4883 11.2153 33.099L13.1862 24.6333L6.60178 18.9448C6.30317 18.676 6.11683 18.3697 6.04278 18.0257C5.96872 17.6817 5.99082 17.346 6.10907 17.0188C6.22732 16.6915 6.40649 16.4227 6.64657 16.2125C6.88665 16.0023 7.21512 15.8679 7.63199 15.8094L16.3216 15.0479L19.6809 7.075C19.8302 6.71667 20.062 6.44792 20.3761 6.26875C20.6903 6.08958 21.011 6 21.3382 6C21.6655 6 21.9862 6.08958 22.3004 6.26875C22.6145 6.44792 22.8462 6.71667 22.9955 7.075L26.3549 15.0479L35.0445 15.8094C35.4625 15.8691 35.791 16.0035 36.0299 16.2125C36.2688 16.4215 36.448 16.6903 36.5674 17.0188C36.6868 17.3472 36.7095 17.6835 36.6355 18.0275C36.5614 18.3715 36.3745 18.6772 36.0747 18.9448L29.4903 24.6333L31.4612 33.099C31.5507 33.4872 31.5209 33.8383 31.3716 34.1525C31.2223 34.4666 31.0132 34.7276 30.7445 34.9354C30.4757 35.1433 30.1622 35.2627 29.8039 35.2937C29.4455 35.3248 29.1021 35.2352 28.7737 35.025L21.3382 30.5458Z" fill="white"/>
</svg>
