<svg width="42" height="42" viewBox="0 0 42 42" fill="none" xmlns="http://www.w3.org/2000/svg">
<path d="M15.2292 28.9534L20.6498 25.6838L26.0704 28.9964L24.6507 22.8014L29.4261 18.6714L23.145 18.1121L20.6498 12.2613L18.1546 18.0691L11.8736 18.6284L16.6489 22.8014L15.2292 28.9534ZM20.6498 29.7278L13.5084 34.0298C13.1929 34.2306 12.863 34.3166 12.5189 34.288C12.1747 34.2593 11.8736 34.1446 11.6154 33.9438C11.3573 33.743 11.1565 33.4924 11.0131 33.1918C10.8697 32.8912 10.8411 32.5539 10.9271 32.1799L12.82 24.049L6.49596 18.5854C6.20915 18.3272 6.03018 18.033 5.95906 17.7026C5.88793 17.3722 5.90915 17.0498 6.02273 16.7355C6.1363 16.4211 6.30838 16.163 6.53898 15.9611C6.76957 15.7592 7.08505 15.6301 7.48543 15.5739L15.8315 14.8426L19.058 7.18484C19.2014 6.84068 19.424 6.58255 19.7257 6.41047C20.0274 6.23839 20.3355 6.15234 20.6498 6.15234C20.9641 6.15234 21.2722 6.23839 21.5739 6.41047C21.8756 6.58255 22.0982 6.84068 22.2416 7.18484L25.4681 14.8426L33.8142 15.5739C34.2157 15.6313 34.5312 15.7603 34.7606 15.9611C34.9901 16.1619 35.1622 16.42 35.2769 16.7355C35.3916 17.051 35.4134 17.3739 35.3423 17.7043C35.2712 18.0347 35.0916 18.3284 34.8037 18.5854L28.4796 24.049L30.3725 32.1799C30.4586 32.5528 30.4299 32.8901 30.2865 33.1918C30.1431 33.4935 29.9423 33.7442 29.6842 33.9438C29.4261 34.1434 29.1249 34.2581 28.7807 34.288C28.4366 34.3178 28.1068 34.2318 27.7913 34.0298L20.6498 29.7278Z" fill="white"/>
</svg>
