<svg width="23" height="22" viewBox="0 0 23 22" fill="none" xmlns="http://www.w3.org/2000/svg">
<path d="M2.5 9.5V14.5C2.5 17.3284 2.5 18.7426 3.37868 19.6213C4.25736 20.5 5.67157 20.5 8.5 20.5H14.5C17.3284 20.5 18.7426 20.5 19.6213 19.6213C20.5 18.7426 20.5 17.3284 20.5 14.5V9.5" stroke="#E8C0FD" stroke-width="1.5" stroke-linecap="round"/>
<path d="M14.5 16C13.8159 16.6072 12.7268 17 11.5 17C10.2732 17 9.18409 16.6072 8.5 16" stroke="#E8C0FD" stroke-width="1.5" stroke-linecap="round"/>
<path d="M2.41199 4.23509L1.69806 4.0053H1.69806L2.41199 4.23509ZM1.72827 6.35933L2.44219 6.58912L1.72827 6.35933ZM20.588 4.23509L19.8741 4.46488V4.46488L20.588 4.23509ZM21.2717 6.35933L21.9857 6.12954L21.2717 6.35933ZM9.15635 8.77316C8.86534 8.47841 8.39047 8.47538 8.09572 8.7664C7.80096 9.05742 7.79793 9.53228 8.08895 9.82703L9.15635 8.77316ZM14.9112 8.77261C14.6202 8.47778 14.1454 8.47464 13.8505 8.76559C13.5557 9.05654 13.5526 9.5314 13.8435 9.82623L14.9112 8.77261ZM1.87533 8.57004L2.48333 8.13091L2.48333 8.13091L1.87533 8.57004ZM10.3727 7.68818C10.4766 7.28722 10.2358 6.87792 9.83487 6.77399C9.4339 6.67006 9.02461 6.91085 8.92068 7.31182L10.3727 7.68818ZM16.1267 7.68818C16.2306 7.28722 15.9899 6.87792 15.5889 6.77399C15.1879 6.67006 14.7786 6.91085 14.6747 7.31182L16.1267 7.68818ZM21.1247 8.57004L20.5167 8.13091V8.13091L21.1247 8.57004ZM21.4735 7.70667L20.7325 7.59103V7.59103L21.4735 7.70667ZM1.5265 7.70667L0.78547 7.82231L1.5265 7.70667ZM3.55507 1.87752L3.10645 1.27649L3.10645 1.27649L3.55507 1.87752ZM1.69806 4.0053L1.01434 6.12954L2.44219 6.58912L3.12592 4.46488L1.69806 4.0053ZM19.8741 4.46488L20.5578 6.58912L21.9857 6.12954L21.3019 4.0053L19.8741 4.46488ZM6.07622 2.25H16.9238V0.75H6.07622V2.25ZM11.4993 9.75C10.5804 9.75 9.75175 9.37621 9.15635 8.77316L8.08895 9.82703C8.95574 10.705 10.1646 11.25 11.4993 11.25V9.75ZM17.2547 9.75C16.3355 9.75 15.5066 9.37598 14.9112 8.77261L13.8435 9.82623C14.7104 10.7046 15.9196 11.25 17.2547 11.25V9.75ZM5.7453 9.75C4.51112 9.75 3.17028 9.08203 2.48333 8.13091L1.26733 9.00917C2.25148 10.3718 4.05603 11.25 5.7453 11.25V9.75ZM8.92068 7.31182C8.55796 8.71116 7.27553 9.75 5.7453 9.75V11.25C7.96912 11.25 9.84104 9.7393 10.3727 7.68818L8.92068 7.31182ZM14.6747 7.31182C14.312 8.71116 13.0296 9.75 11.4993 9.75V11.25C13.7231 11.25 15.5951 9.7393 16.1267 7.68818L14.6747 7.31182ZM20.5167 8.13091C19.8297 9.08203 18.4889 9.75 17.2547 9.75V11.25C18.944 11.25 20.7485 10.3718 21.7327 9.00917L20.5167 8.13091ZM20.5578 6.58912C20.7449 7.1704 20.7777 7.30138 20.7325 7.59103L22.2145 7.82231C22.3208 7.1415 22.1686 6.69774 21.9857 6.12954L20.5578 6.58912ZM21.7327 9.00917C21.8174 8.89189 21.9327 8.73648 22.0243 8.53046C22.117 8.32192 22.1717 8.09674 22.2145 7.82231L20.7325 7.59103C20.6996 7.80184 20.6709 7.88229 20.6536 7.92111C20.6353 7.96244 20.614 7.99609 20.5167 8.13091L21.7327 9.00917ZM21.3019 4.0053C21.0947 3.36137 20.9214 2.81957 20.7309 2.39553C20.5333 1.95545 20.2871 1.57024 19.8936 1.27649L18.9963 2.47854C19.1085 2.56231 19.2215 2.69586 19.3627 3.01018C19.5111 3.34054 19.6565 3.78877 19.8741 4.46488L21.3019 4.0053ZM16.9238 2.25C17.6135 2.25 18.0655 2.25121 18.4105 2.292C18.7346 2.33033 18.8863 2.39642 18.9963 2.47854L19.8936 1.27649C19.4978 0.9811 19.0607 0.858429 18.5866 0.802377C18.1333 0.748786 17.5777 0.75 16.9238 0.75V2.25ZM1.01434 6.12954C0.831449 6.69774 0.679227 7.1415 0.78547 7.82231L2.26753 7.59103C2.22233 7.30137 2.2551 7.1704 2.44219 6.58912L1.01434 6.12954ZM2.48333 8.13091C2.38596 7.99609 2.36474 7.96244 2.34636 7.92111C2.32911 7.88229 2.30043 7.80184 2.26753 7.59103L0.78547 7.82231C0.828295 8.09674 0.882998 8.32192 0.975709 8.53046C1.0673 8.73648 1.18263 8.89189 1.26733 9.00917L2.48333 8.13091ZM3.12592 4.46488C3.34354 3.78877 3.48895 3.34054 3.63735 3.01018C3.77854 2.69586 3.89148 2.56231 4.0037 2.47854L3.10645 1.27649C2.71291 1.57024 2.46674 1.95545 2.26906 2.39553C2.07858 2.81957 1.90532 3.36137 1.69806 4.0053L3.12592 4.46488ZM6.07622 0.75C5.4223 0.75 4.86666 0.748786 4.4134 0.802377C3.93932 0.858429 3.50218 0.9811 3.10645 1.27649L4.0037 2.47854C4.11373 2.39642 4.26536 2.33033 4.58952 2.292C4.93449 2.25121 5.38655 2.25 6.07622 2.25V0.75Z" fill="#E8C0FD"/>
</svg>
