<svg width="20" height="21" viewBox="0 0 20 21" fill="none" xmlns="http://www.w3.org/2000/svg">
<path d="M16.8754 3H11.8754C11.7797 2.99999 11.6852 3.02196 11.5994 3.06423C11.5135 3.10649 11.4385 3.16791 11.3801 3.24375L6.38008 9.74453L5.6254 8.99141C5.50931 8.87519 5.37145 8.78299 5.2197 8.72008C5.06795 8.65718 4.90529 8.6248 4.74102 8.6248C4.57675 8.6248 4.41409 8.65718 4.26235 8.72008C4.1106 8.78299 3.97274 8.87519 3.85665 8.99141L2.86524 9.98359C2.74914 10.0997 2.65704 10.2375 2.5942 10.3892C2.53137 10.5408 2.49902 10.7034 2.49902 10.8676C2.49902 11.0318 2.53137 11.1943 2.5942 11.346C2.65704 11.4977 2.74914 11.6355 2.86524 11.7516L4.42774 13.3141L2.24024 15.5016C2.12414 15.6176 2.03204 15.7555 1.9692 15.9071C1.90637 16.0588 1.87402 16.2214 1.87402 16.3855C1.87402 16.5497 1.90637 16.7123 1.9692 16.864C2.03204 17.0156 2.12414 17.1535 2.24024 17.2695L3.23165 18.2602C3.46604 18.4944 3.78386 18.626 4.11524 18.626C4.44662 18.626 4.76444 18.4944 4.99883 18.2602L7.18634 16.0727L8.74884 17.6352C8.86493 17.7514 9.00279 17.8436 9.15453 17.9065C9.30628 17.9694 9.46894 18.0018 9.63321 18.0018C9.79748 18.0018 9.96014 17.9694 10.1119 17.9065C10.2636 17.8436 10.4015 17.7514 10.5176 17.6352L11.509 16.643C11.6251 16.5269 11.7172 16.3891 11.78 16.2374C11.8429 16.0857 11.8752 15.9232 11.8752 15.759C11.8752 15.5948 11.8429 15.4322 11.78 15.2806C11.7172 15.1289 11.6251 14.9911 11.509 14.875L10.7559 14.1219L17.2566 9.12187C17.3327 9.06333 17.3942 8.98806 17.4365 8.90189C17.4788 8.81572 17.5006 8.72098 17.5004 8.625V3.625C17.5004 3.45924 17.4345 3.30027 17.3173 3.18306C17.2001 3.06585 17.0412 3 16.8754 3ZM4.1168 17.375L3.1254 16.3844L5.3129 14.1969L6.30352 15.1875L4.1168 17.375ZM9.63321 16.75L3.7504 10.868L4.74258 9.875L10.6254 15.7586L9.63321 16.75ZM16.2504 8.31719L9.86446 13.2297L9.00977 12.375L12.9426 8.44219C13.0598 8.32491 13.1255 8.16589 13.1255 8.00011C13.1254 7.83434 13.0595 7.67537 12.9422 7.5582C12.8249 7.44103 12.6659 7.37525 12.5001 7.37532C12.3343 7.37539 12.1754 7.44132 12.0582 7.55859L8.1254 11.4906L7.27149 10.6359L12.1832 4.25H16.2504V8.31719Z" fill="#A2A3A4"/>
</svg>
