<svg width="50" height="50" viewBox="0 0 50 50" fill="none" xmlns="http://www.w3.org/2000/svg">
<rect width="50" height="50" rx="25" fill="white"/>
<path d="M29.9998 24.9999C28.7148 24.9999 27.4723 24.4262 26.4998 23.385C25.5542 22.3693 24.9767 21.015 24.8749 19.5725C24.7661 18.0337 25.2355 16.6187 26.1961 15.5875C27.1567 14.5562 28.4998 14 29.9998 14C31.4892 14 32.8361 14.5662 33.7936 15.595C34.7604 16.6337 35.231 18.0462 35.1223 19.5718C35.0179 21.0162 34.4411 22.37 33.4973 23.3843C32.5273 24.4262 31.2854 24.9999 29.9998 24.9999ZM38.2392 35.9999H21.7611C21.4962 36.0013 21.2345 35.9419 20.9961 35.8263C20.7577 35.7107 20.549 35.5419 20.3861 35.333C20.2133 35.1065 20.094 34.8439 20.037 34.5648C19.9801 34.2856 19.9871 33.9972 20.0574 33.7211C20.5836 31.608 21.8874 29.8555 23.8274 28.6537C25.5492 27.5874 27.7411 26.9999 29.9998 26.9999C32.3029 26.9999 34.4373 27.5624 36.1692 28.628C38.1135 29.8237 39.4192 31.5862 39.9429 33.7249C40.0124 34.0012 40.0185 34.2896 39.961 34.5686C39.9034 34.8475 39.7836 35.1099 39.6104 35.3361C39.4477 35.5441 39.2395 35.712 39.0018 35.8271C38.7641 35.9421 38.5032 36.0012 38.2392 35.9999ZM18.1874 25.2499C15.988 25.2499 14.0543 23.205 13.8749 20.6918C13.7862 19.4043 14.1874 18.2137 14.9999 17.3406C15.8036 16.4762 16.9374 16 18.1874 16C19.4374 16 20.5624 16.4787 21.3705 17.3481C22.1892 18.2281 22.5892 19.4162 22.4955 20.6931C22.3161 23.2056 20.383 25.2499 18.1874 25.2499ZM22.2911 27.2156C21.1917 26.6781 19.7649 26.4093 18.188 26.4093C16.3468 26.4093 14.5587 26.8893 13.1524 27.7606C11.558 28.7499 10.4856 30.1905 10.0524 31.9299C9.98904 32.1801 9.98305 32.4414 10.0349 32.6942C10.0867 32.947 10.1951 33.1849 10.3518 33.3899C10.5005 33.5808 10.691 33.7351 10.9087 33.8408C11.1264 33.9466 11.3654 34.001 11.6074 33.9999H18.5449C18.662 33.9999 18.7754 33.9588 18.8652 33.8837C18.9551 33.8087 19.0158 33.7045 19.0368 33.5893C19.0436 33.5499 19.0524 33.5105 19.0624 33.4718C19.5924 31.343 20.8342 29.5443 22.6692 28.2331C22.7367 28.1844 22.791 28.1197 22.8272 28.0448C22.8633 27.9698 22.8802 27.8871 22.8763 27.8039C22.8724 27.7208 22.8478 27.64 22.8048 27.5688C22.7617 27.4976 22.7016 27.4383 22.6299 27.3962C22.5317 27.3387 22.4192 27.2781 22.2911 27.2156Z" fill="black"/>
</svg>
