<svg width="24" height="24" viewBox="0 0 24 24" fill="none" xmlns="http://www.w3.org/2000/svg">
<path fill-rule="evenodd" clip-rule="evenodd" d="M21.5949 1.7998H2.39888C1.97436 1.80097 1.56755 1.97012 1.26737 2.2703C0.967191 2.57048 0.798036 2.97728 0.796875 3.4018V16.5978C0.798036 17.0223 0.967191 17.4291 1.26737 17.7293C1.56755 18.0295 1.97436 18.1986 2.39888 18.1998H6.79367C7.50688 18.1998 7.86368 19.0626 7.35848 19.5662L5.91928 21.001C5.61288 21.5342 5.99767 22.1998 6.61287 22.1998H17.5621C18.1773 22.1998 18.5621 21.5346 18.2557 21.0014L16.8165 19.5666C16.3113 19.063 16.6681 18.2002 17.3813 18.2002H21.5949C22.0194 18.199 22.4262 18.0299 22.7264 17.7297C23.0266 17.4295 23.1957 17.0227 23.1969 16.5982V3.4018C23.1957 2.97728 23.0266 2.57048 22.7264 2.2703C22.4262 1.97012 22.0194 1.80097 21.5949 1.7998ZM9.71736 10.0036C9.12755 9.31548 8 9.73259 8 10.6389C8 10.8719 8.08336 11.0973 8.23501 11.2742L10.3272 13.715C10.6951 14.1443 11.3454 14.1834 11.7621 13.8014L16.6414 9.32868C16.8699 9.11925 17 8.82353 17 8.51359C17 7.55148 15.8563 7.04838 15.1471 7.69849L11.2415 11.2787C11.1094 11.3997 10.9034 11.3873 10.7868 11.2513L9.71736 10.0036Z" fill="url(#paint0_linear_3131_16019)"/>
<path fill-rule="evenodd" clip-rule="evenodd" d="M21.5949 1.7998H2.39888C1.97436 1.80097 1.56755 1.97012 1.26737 2.2703C0.967191 2.57048 0.798036 2.97728 0.796875 3.4018V16.5978C0.798036 17.0223 0.967191 17.4291 1.26737 17.7293C1.56755 18.0295 1.97436 18.1986 2.39888 18.1998H6.79367C7.50688 18.1998 7.86368 19.0626 7.35848 19.5662L5.91928 21.001C5.61288 21.5342 5.99767 22.1998 6.61287 22.1998H17.5621C18.1773 22.1998 18.5621 21.5346 18.2557 21.0014L16.8165 19.5666C16.3113 19.063 16.6681 18.2002 17.3813 18.2002H21.5949C22.0194 18.199 22.4262 18.0299 22.7264 17.7297C23.0266 17.4295 23.1957 17.0227 23.1969 16.5982V3.4018C23.1957 2.97728 23.0266 2.57048 22.7264 2.2703C22.4262 1.97012 22.0194 1.80097 21.5949 1.7998ZM9.71736 10.0036C9.12755 9.31548 8 9.73259 8 10.6389C8 10.8719 8.08336 11.0973 8.23501 11.2742L10.3272 13.715C10.6951 14.1443 11.3454 14.1834 11.7621 13.8014L16.6414 9.32868C16.8699 9.11925 17 8.82353 17 8.51359C17 7.55148 15.8563 7.04838 15.1471 7.69849L11.2415 11.2787C11.1094 11.3997 10.9034 11.3873 10.7868 11.2513L9.71736 10.0036Z" fill="url(#paint1_linear_3131_16019)"/>
<defs>
<linearGradient id="paint0_linear_3131_16019" x1="1" y1="4" x2="16" y2="22" gradientUnits="userSpaceOnUse">
<stop stop-color="#F6CFBB"/>
<stop offset="1" stop-color="#DC9270"/>
</linearGradient>
<linearGradient id="paint1_linear_3131_16019" x1="0.796875" y1="1.7998" x2="24.3927" y2="3.29217" gradientUnits="userSpaceOnUse">
<stop stop-color="#F7DE96"/>
<stop offset="1" stop-color="#CAAF63"/>
</linearGradient>
</defs>
</svg>
