<svg width="25" height="25" viewBox="0 0 25 25" fill="none" xmlns="http://www.w3.org/2000/svg">
<path d="M16.9412 7.9707V11.9707M12.9412 7.9707V11.9707" stroke="white" stroke-width="1.5" stroke-linecap="round" stroke-linejoin="round"/>
<path d="M16.9412 3.9707H8.94116C7.05554 3.9707 6.11274 3.9707 5.52695 4.55428C4.94116 5.13786 4.94116 6.07711 4.94116 7.95562V14.5307C4.94116 14.9009 4.94116 15.086 4.96579 15.2409C5.10133 16.0935 5.77251 16.7621 6.62829 16.8972C6.78376 16.9217 6.96956 16.9217 7.34116 16.9217C7.43406 16.9217 7.48051 16.9217 7.51938 16.9278C7.73333 16.9616 7.90112 17.1287 7.93501 17.3419C7.94116 17.3806 7.94116 17.4269 7.94116 17.5194V19.0628C7.94116 20.2449 7.94116 20.836 8.27566 20.9529C8.61016 21.0698 8.98078 20.6082 9.72203 19.6851L11.6409 17.2956C11.7884 17.1119 11.8622 17.02 11.9649 16.9709C12.0676 16.9217 12.1856 16.9217 12.4218 16.9217H16.2843C17.1018 16.9217 17.5106 16.9217 17.8781 16.77C18.2456 16.6184 18.5347 16.3304 19.1127 15.7545L19.7696 15.1002C20.3476 14.5243 20.6367 14.2363 20.7889 13.8702C20.9412 13.504 20.9412 13.0968 20.9412 12.2824V7.95562C20.9412 6.07711 20.9412 5.13786 20.3554 4.55428C19.7696 3.9707 18.8268 3.9707 16.9412 3.9707Z" stroke="white" stroke-width="1.5" stroke-linecap="round" stroke-linejoin="round"/>
</svg>
