<svg width="22" height="22" viewBox="0 0 22 22" fill="none" xmlns="http://www.w3.org/2000/svg">
<path fill-rule="evenodd" clip-rule="evenodd" d="M2.97297 0C1.33105 0 0 1.33105 0 2.97297V19.027C0 20.669 1.33105 22 2.97297 22H19.027C20.669 22 22 20.669 22 19.027V2.97297C22 1.33105 20.669 0 19.027 0H2.97297ZM4.97357 10.8982C4.73893 11.163 4.60938 11.5046 4.60938 11.8584C4.60938 13.1909 6.25725 13.8159 7.14092 12.8186L8.13673 11.6947C8.52947 11.2515 9.21924 11.2448 9.62056 11.6803L12.5762 14.8877C12.9689 15.3138 13.6404 15.318 14.0384 14.8969L16.9834 11.7809C17.2465 11.5025 17.3932 11.1339 17.3932 10.7508C17.3932 9.39432 15.7354 8.73489 14.8036 9.72076L14.0384 10.5305C13.6404 10.9516 12.9689 10.9473 12.5762 10.5212L9.62056 7.31381C9.21924 6.8783 8.52947 6.88503 8.13673 7.32828L4.97357 10.8982Z" fill="url(#paint0_linear_3131_16045)"/>
<path fill-rule="evenodd" clip-rule="evenodd" d="M2.97297 0C1.33105 0 0 1.33105 0 2.97297V19.027C0 20.669 1.33105 22 2.97297 22H19.027C20.669 22 22 20.669 22 19.027V2.97297C22 1.33105 20.669 0 19.027 0H2.97297ZM4.97357 10.8982C4.73893 11.163 4.60938 11.5046 4.60938 11.8584C4.60938 13.1909 6.25725 13.8159 7.14092 12.8186L8.13673 11.6947C8.52947 11.2515 9.21924 11.2448 9.62056 11.6803L12.5762 14.8877C12.9689 15.3138 13.6404 15.318 14.0384 14.8969L16.9834 11.7809C17.2465 11.5025 17.3932 11.1339 17.3932 10.7508C17.3932 9.39432 15.7354 8.73489 14.8036 9.72076L14.0384 10.5305C13.6404 10.9516 12.9689 10.9473 12.5762 10.5212L9.62056 7.31381C9.21924 6.8783 8.52947 6.88503 8.13673 7.32828L4.97357 10.8982Z" fill="url(#paint1_linear_3131_16045)"/>
<defs>
<linearGradient id="paint0_linear_3131_16045" x1="2" y1="2.5" x2="19.5" y2="22" gradientUnits="userSpaceOnUse">
<stop stop-color="#F6CFBB"/>
<stop offset="1" stop-color="#DC9270"/>
</linearGradient>
<linearGradient id="paint1_linear_3131_16045" x1="0" y1="0" x2="23.1903" y2="1.33576" gradientUnits="userSpaceOnUse">
<stop stop-color="#F7DE96"/>
<stop offset="1" stop-color="#CAAF63"/>
</linearGradient>
</defs>
</svg>
