<svg width="21" height="20" viewBox="0 0 21 20" fill="none" xmlns="http://www.w3.org/2000/svg">
<g clip-path="url(#clip0_4280_4015)">
<path d="M8.55162 1.23851C9.40241 -0.412835 11.7634 -0.412835 12.6142 1.23851C13.1254 2.23077 14.2787 2.70848 15.3418 2.36832C17.1111 1.80223 18.7807 3.47173 18.2145 5.241C17.8743 6.30412 18.352 7.45742 19.3443 7.96862C20.9957 8.8194 20.9957 11.1804 19.3443 12.0312C18.352 12.5424 17.8743 13.6957 18.2145 14.7588C18.7807 16.5281 17.1111 18.1977 15.3418 17.6315C14.2787 17.2913 13.1254 17.769 12.6142 18.7613C11.7634 20.4127 9.40241 20.4127 8.55162 18.7613C8.04042 17.769 6.88712 17.2913 5.82401 17.6315C4.05474 18.1977 2.38524 16.5281 2.95132 14.7588C3.29149 13.6957 2.81377 12.5424 1.82151 12.0312C0.170173 11.1804 0.170173 8.8194 1.82151 7.96862C2.81377 7.45742 3.29149 6.30412 2.95132 5.241C2.38524 3.47173 4.05474 1.80223 5.82401 2.36832C6.88712 2.70848 8.04042 2.23077 8.55162 1.23851Z" fill="#FEDA03"/>
<path fill-rule="evenodd" clip-rule="evenodd" d="M14.6489 7.0664C14.9933 7.39847 15.0033 7.94682 14.6712 8.29117L9.59298 13.5575L6.49463 10.3444C6.16256 10 6.17253 9.45165 6.51689 9.11959C6.86126 8.78754 7.40961 8.7975 7.74168 9.14185L9.59298 11.0617L13.4242 7.08867C13.7562 6.7443 14.3046 6.73434 14.6489 7.0664Z" fill="black"/>
</g>
<defs>
<clipPath id="clip0_4280_4015">
<rect width="20" height="20" fill="white" transform="translate(0.583008)"/>
</clipPath>
</defs>
</svg>
