<svg width="343" height="501" viewBox="0 0 343 501" fill="none" xmlns="http://www.w3.org/2000/svg">
<rect width="343" height="501" rx="20" fill="url(#paint0_linear_3572_4996)"/>
<rect x="0.5" y="0.5" width="342" height="500" rx="19.5" stroke="url(#paint1_linear_3572_4996)" stroke-opacity="0.4"/>
<mask id="mask0_3572_4996" style="mask-type:alpha" maskUnits="userSpaceOnUse" x="0" y="0" width="343" height="308">
<path d="M0 20C0 8.95431 8.9543 0 20 0H323C334.046 0 343 8.95431 343 20V288C343 299.046 334.046 308 323 308H20C8.9543 308 0 299.046 0 288V20Z" fill="url(#paint2_linear_3572_4996)"/>
</mask>
<g mask="url(#mask0_3572_4996)">
<rect opacity="0.2" x="12.5244" y="-29.7354" width="76" height="235.02" transform="rotate(-45 12.5244 -29.7354)" fill="url(#paint3_linear_3572_4996)"/>
<rect opacity="0.2" x="56" y="-138.26" width="76" height="298" transform="rotate(-45 56 -138.26)" fill="url(#paint4_linear_3572_4996)"/>
<path d="M346.714 21H245.286L218 73.2785L296 148L374 73.2785L346.714 21ZM234.2 70.7588L253.513 33.7545H338.486L357.798 70.7588L296 129.961L234.2 70.7588Z" fill="#D7B860"/>
<path d="M346.714 21H245.286L218 73.2785L296 148L374 73.2785L346.714 21ZM234.2 70.7588L253.513 33.7545H338.486L357.798 70.7588L296 129.961L234.2 70.7588Z" fill="url(#paint5_linear_3572_4996)"/>
<path d="M296 98.1259L267.417 71L258 79.9363L296 116L334 79.9363L324.583 71L296 98.1259Z" fill="#D7B860"/>
<path d="M296 98.1259L267.417 71L258 79.9363L296 116L334 79.9363L324.583 71L296 98.1259Z" fill="url(#paint6_linear_3572_4996)"/>
</g>
<rect opacity="0.4" y="22" width="343" height="35" fill="url(#paint7_linear_3572_4996)" fill-opacity="0.2"/>
<defs>
<linearGradient id="paint0_linear_3572_4996" x1="0" y1="0" x2="172.196" y2="554.082" gradientUnits="userSpaceOnUse">
<stop stop-color="#19191B"/>
<stop offset="0.5" stop-color="#232323"/>
<stop offset="1" stop-color="#08090C"/>
</linearGradient>
<linearGradient id="paint1_linear_3572_4996" x1="0" y1="0" x2="203.629" y2="370.268" gradientUnits="userSpaceOnUse">
<stop stop-color="white"/>
<stop offset="1" stop-color="#999999" stop-opacity="0"/>
</linearGradient>
<linearGradient id="paint2_linear_3572_4996" x1="9.28348" y1="-9.11243" x2="389.443" y2="133.078" gradientUnits="userSpaceOnUse">
<stop stop-color="#FFDE9D"/>
<stop offset="1" stop-color="#CE9E78"/>
</linearGradient>
<linearGradient id="paint3_linear_3572_4996" x1="52.0542" y1="-34.0474" x2="52.0919" y2="185.905" gradientUnits="userSpaceOnUse">
<stop stop-color="#FFF0DF"/>
<stop offset="1" stop-color="#FFF5EF" stop-opacity="0"/>
</linearGradient>
<linearGradient id="paint4_linear_3572_4996" x1="95.5298" y1="-143.727" x2="95.5903" y2="135.168" gradientUnits="userSpaceOnUse">
<stop stop-color="#FFF5EF"/>
<stop offset="1" stop-color="#FFF5EF" stop-opacity="0"/>
</linearGradient>
<linearGradient id="paint5_linear_3572_4996" x1="218" y1="21" x2="385.912" y2="39.4209" gradientUnits="userSpaceOnUse">
<stop stop-color="#DDBF6A"/>
<stop offset="0.497615" stop-color="#9B7700"/>
<stop offset="1" stop-color="#DDBF6A"/>
</linearGradient>
<linearGradient id="paint6_linear_3572_4996" x1="258" y1="71" x2="338.946" y2="83.2097" gradientUnits="userSpaceOnUse">
<stop stop-color="#DDBF6A"/>
<stop offset="0.497615" stop-color="#9B7700"/>
<stop offset="1" stop-color="#DDBF6A"/>
</linearGradient>
<linearGradient id="paint7_linear_3572_4996" x1="0" y1="39.5" x2="343" y2="39.5" gradientUnits="userSpaceOnUse">
<stop stop-color="#D3B45A"/>
<stop offset="1" stop-color="#6D5D2E" stop-opacity="0"/>
</linearGradient>
</defs>
</svg>
