<svg width="18" height="19" viewBox="0 0 18 19" fill="none" xmlns="http://www.w3.org/2000/svg">
<path d="M4 18.75V16.75H8V13.65C7.18333 13.4667 6.45433 13.121 5.813 12.613C5.17167 12.105 4.70067 11.4673 4.4 10.7C3.15 10.55 2.10433 10.0043 1.263 9.063C0.421667 8.12167 0.000666667 7.01733 0 5.75V4.75C0 4.2 0.196 3.72933 0.588 3.338C0.98 2.94667 1.45067 2.75067 2 2.75H4V0.75H14V2.75H16C16.55 2.75 17.021 2.946 17.413 3.338C17.805 3.73 18.0007 4.20067 18 4.75V5.75C18 7.01667 17.579 8.121 16.737 9.063C15.895 10.005 14.8493 10.5507 13.6 10.7C13.3 11.4667 12.8293 12.1043 12.188 12.613C11.5467 13.1217 10.8173 13.4673 10 13.65V16.75H14V18.75H4ZM4 8.55V4.75H2V5.75C2 6.38333 2.18333 6.95433 2.55 7.463C2.91667 7.97167 3.4 8.334 4 8.55ZM9 11.75C9.83333 11.75 10.5417 11.4583 11.125 10.875C11.7083 10.2917 12 9.58333 12 8.75V2.75H6V8.75C6 9.58333 6.29167 10.2917 6.875 10.875C7.45833 11.4583 8.16667 11.75 9 11.75ZM14 8.55C14.6 8.33333 15.0833 7.97067 15.45 7.462C15.8167 6.95333 16 6.38267 16 5.75V4.75H14V8.55Z" fill="#A2A3A4"/>
</svg>
