<svg width="21" height="22" viewBox="0 0 21 22" fill="none" xmlns="http://www.w3.org/2000/svg">
<path d="M5.00021 0.75C3.70003 0.878535 2.82485 1.16902 2.17163 1.82554C1 3.00309 1 4.89832 1 8.68879V12.7092C1 16.4997 1 18.3949 2.17163 19.5725C3.34327 20.75 5.22898 20.75 9.00041 20.75H11.0005C14.7719 20.75 16.6577 20.75 17.8293 19.5725C18.8926 18.5038 18.9909 16.8556 19 13.7266" stroke="#A2A3A4" stroke-width="1.5" stroke-linecap="round" stroke-linejoin="round"/>
<path d="M10.0068 5.58559C9.91596 5.18146 9.51473 4.92744 9.11059 5.01824C8.70646 5.10904 8.45244 5.51027 8.54324 5.91441L10.0068 5.58559ZM10.0893 9.37458L10.8211 9.21018L10.0893 9.37458ZM17.8099 5.98042C17.9027 5.57673 17.6506 5.17428 17.2469 5.08154C16.8432 4.9888 16.4408 5.24088 16.348 5.64458L17.8099 5.98042ZM16.2607 9.37458L15.5297 9.20666L15.5289 9.21018L16.2607 9.37458ZM10.4886 10.0027L10.9141 9.38516H10.9141L10.4886 10.0027ZM15.8614 10.0027L16.287 10.6203V10.6203L15.8614 10.0027ZM20.2083 4.51017C20.2083 4.09595 19.8725 3.76017 19.4583 3.76017C19.0441 3.76017 18.7083 4.09595 18.7083 4.51017H20.2083ZM18.7083 9.1875C18.7083 9.60171 19.0441 9.9375 19.4583 9.9375C19.8725 9.9375 20.2083 9.60171 20.2083 9.1875H18.7083ZM7.75 3.875C7.75 4.01448 7.69808 4.09501 7.69714 4.09653C7.69283 4.10348 7.70458 4.08354 7.75231 4.03702C7.8477 3.94404 8.01161 3.81693 8.25013 3.66249C8.72132 3.35742 9.38274 3.01001 10.1017 2.67944C10.8173 2.35043 11.5674 2.04833 12.2071 1.83022C12.5272 1.72107 12.8118 1.63565 13.0457 1.57834C13.2924 1.51791 13.4386 1.5 13.5 1.5V0C13.2537 0 12.9659 0.0535383 12.6888 0.121422C12.399 0.192429 12.07 0.292177 11.723 0.410481C11.0285 0.647274 10.2306 0.969191 9.47506 1.3166C8.72289 1.66245 7.99012 2.04388 7.4349 2.40337C7.16022 2.58121 6.90287 2.77031 6.70531 2.96287C6.60655 3.05913 6.5039 3.17431 6.42181 3.30688C6.34309 3.43403 6.25 3.63069 6.25 3.875H7.75ZM20.75 3.875C20.75 3.63069 20.6569 3.43403 20.5782 3.30688C20.4961 3.17431 20.3934 3.05913 20.2947 2.96287C20.0971 2.77031 19.8398 2.58121 19.5651 2.40337C19.0099 2.04388 18.2771 1.66245 17.5249 1.3166C16.7694 0.969191 15.9715 0.647274 15.277 0.410482C14.93 0.292177 14.601 0.192429 14.3112 0.121422C14.0341 0.0535383 13.7463 0 13.5 0V1.5C13.5614 1.5 13.7076 1.51791 13.9543 1.57834C14.1882 1.63565 14.4728 1.72107 14.7929 1.83022C15.4326 2.04833 16.1827 2.35043 16.8983 2.67944C17.6173 3.01001 18.2787 3.35742 18.7499 3.66249C18.9884 3.81693 19.1523 3.94404 19.2477 4.03702C19.2954 4.08354 19.3072 4.10348 19.3029 4.09653C19.3019 4.09501 19.25 4.01448 19.25 3.875H20.75ZM19.25 3.875C19.25 3.73552 19.3019 3.65499 19.3029 3.65347C19.3072 3.64652 19.2954 3.66646 19.2477 3.71298C19.1523 3.80596 18.9884 3.93308 18.7499 4.08751C18.2787 4.39258 17.6173 4.73999 16.8983 5.07056C16.1827 5.39957 15.4326 5.70167 14.7929 5.91978C14.4728 6.02893 14.1882 6.11436 13.9543 6.17166C13.7076 6.23209 13.5614 6.25 13.5 6.25V7.75C13.7463 7.75 14.0341 7.69646 14.3112 7.62858C14.601 7.55757 14.93 7.45782 15.277 7.33952C15.9715 7.10273 16.7694 6.78081 17.5249 6.4334C18.2771 6.08755 19.0099 5.70612 19.5651 5.34663C19.8398 5.16879 20.0971 4.97969 20.2947 4.78713C20.3934 4.69087 20.4961 4.57569 20.5782 4.44312C20.6569 4.31597 20.75 4.11931 20.75 3.875H19.25ZM6.25 3.875C6.25 4.11931 6.34309 4.31597 6.42181 4.44312C6.5039 4.57569 6.60655 4.69087 6.70531 4.78713C6.90287 4.97969 7.16022 5.16879 7.4349 5.34663C7.99012 5.70612 8.72289 6.08755 9.47506 6.4334C10.2306 6.78081 11.0285 7.10273 11.723 7.33952C12.07 7.45782 12.399 7.55757 12.6888 7.62858C12.9659 7.69646 13.2537 7.75 13.5 7.75V6.25C13.4386 6.25 13.2924 6.23209 13.0457 6.17166C12.8118 6.11436 12.5272 6.02893 12.2071 5.91978C11.5674 5.70167 10.8173 5.39957 10.1017 5.07056C9.38274 4.73999 8.72132 4.39258 8.25013 4.08751C8.01161 3.93308 7.8477 3.80596 7.75231 3.71298C7.70458 3.66646 7.69283 3.64652 7.69714 3.65347C7.69808 3.65499 7.75 3.73552 7.75 3.875H6.25ZM8.54324 5.91441L9.35758 9.53899L10.8211 9.21018L10.0068 5.58559L8.54324 5.91441ZM16.348 5.64458L15.5297 9.20666L16.9916 9.54251L17.8099 5.98042L16.348 5.64458ZM10.063 10.6203C10.9408 11.2251 12.0817 11.5 13.175 11.5C14.2683 11.5 15.4092 11.2251 16.287 10.6203L15.4359 9.38516C14.8676 9.77671 14.0451 10 13.175 10C12.3049 10 11.4824 9.77671 10.9141 9.38516L10.063 10.6203ZM15.5289 9.21018C15.5037 9.32251 15.4586 9.36946 15.4359 9.38516L16.287 10.6203C16.6936 10.3401 16.9061 9.92318 16.9924 9.53899L15.5289 9.21018ZM9.35758 9.53899C9.4439 9.92318 9.65641 10.3401 10.063 10.6203L10.9141 9.38516C10.8914 9.36946 10.8463 9.32251 10.8211 9.21018L9.35758 9.53899ZM18.7083 4.51017V9.1875H20.2083V4.51017H18.7083Z" fill="#A2A3A4"/>
</svg>
