<svg width="22" height="22" viewBox="0 0 22 22" fill="none" xmlns="http://www.w3.org/2000/svg">
<path d="M3.5 8.96875C3.5 5.19751 3.5 3.3119 4.67157 2.14032C5.84315 0.96875 7.72876 0.96875 11.5 0.96875H13C16.7712 0.96875 18.6569 0.96875 19.8284 2.14032C21 3.3119 21 5.19751 21 8.96875V12.9688C21 16.74 21 18.6256 19.8284 19.7972C18.6569 20.9687 16.7712 20.9688 13 20.9688H11.5C7.72876 20.9688 5.84315 20.9687 4.67157 19.7972C3.5 18.6256 3.5 16.74 3.5 12.9688V8.96875Z" stroke="#B3B3B3" stroke-width="1.5"/>
<path d="M9.84003 13.2095L9.42263 12.5864H9.42263L9.84003 13.2095ZM14.66 13.2095L15.0774 12.5864L14.66 13.2095ZM8.56674 15.567L8.01836 16.0787H8.01836L8.56674 15.567ZM15.9333 15.567L15.3849 15.0554L15.9333 15.567ZM10.2574 13.8327C11.4794 13.0141 13.0206 13.0141 14.2426 13.8327L15.0774 12.5864C13.3503 11.4295 11.1497 11.4295 9.42263 12.5864L10.2574 13.8327ZM10.2904 17.2188H14.2096V15.7188H10.2904V17.2188ZM9.11512 15.0554C9.04096 14.9759 9.01468 14.9234 9.00587 14.9009C8.9985 14.8821 9.00009 14.8769 9.00013 14.8764C9.00122 14.8652 9.01635 14.7899 9.14626 14.6469C9.42981 14.3346 9.863 14.0969 10.2574 13.8327L9.42263 12.5864C9.18828 12.7434 8.48275 13.1463 8.03582 13.6384C7.80049 13.8976 7.55244 14.2654 7.50716 14.7313C7.45857 15.2315 7.65655 15.6909 8.01836 16.0787L9.11512 15.0554ZM14.2426 13.8327C14.637 14.0969 15.0702 14.3346 15.3537 14.6469C15.4836 14.7899 15.4988 14.8652 15.4999 14.8764C15.4999 14.8769 15.5015 14.8821 15.4941 14.9009C15.4853 14.9234 15.459 14.9759 15.3849 15.0554L16.4816 16.0787C16.8434 15.6909 17.0414 15.2315 16.9928 14.7313C16.9476 14.2654 16.6995 13.8976 16.4642 13.6384C16.0172 13.1463 15.3117 12.7434 15.0774 12.5864L14.2426 13.8327ZM15.3849 15.0554C14.951 15.5204 14.59 15.7188 14.2096 15.7188V17.2188C15.2029 17.2188 15.9345 16.6651 16.4816 16.0787L15.3849 15.0554ZM8.01836 16.0787C8.56548 16.6651 9.29709 17.2188 10.2904 17.2188V15.7188C9.91001 15.7188 9.54902 15.5204 9.11512 15.0554L8.01836 16.0787ZM13.5 7.46875C13.5 8.15911 12.9404 8.71875 12.25 8.71875V10.2188C13.7688 10.2188 15 8.98753 15 7.46875H13.5ZM12.25 8.71875C11.5596 8.71875 11 8.15911 11 7.46875H9.5C9.5 8.98753 10.7312 10.2188 12.25 10.2188V8.71875ZM11 7.46875C11 6.77839 11.5596 6.21875 12.25 6.21875V4.71875C10.7312 4.71875 9.5 5.94997 9.5 7.46875H11ZM12.25 6.21875C12.9404 6.21875 13.5 6.77839 13.5 7.46875H15C15 5.94997 13.7688 4.71875 12.25 4.71875V6.21875Z" fill="#B3B3B3"/>
<path d="M3.5 4.96875L1 4.96875M3.5 10.9688L1 10.9688M3.5 16.9688H1" stroke="#B3B3B3" stroke-width="1.5" stroke-linecap="round" stroke-linejoin="round"/>
</svg>
