<svg width="22" height="19" viewBox="0 0 22 19" fill="none" xmlns="http://www.w3.org/2000/svg">
<path d="M9.5 5.75H17.5M9.5 9.75H12M17.5 9.75H15M9.5 13.75H12M17.5 13.75H15" stroke="#A2A3A4" stroke-width="1.5" stroke-linecap="round" stroke-linejoin="round"/>
<path d="M6 5.25H5C3.11438 5.25 2.17157 5.25 1.58579 5.83579C1 6.42157 1 7.36438 1 9.25V15.75C1 17.1307 2.11929 18.25 3.5 18.25C4.88071 18.25 6 17.1307 6 15.75V5.25Z" stroke="#A2A3A4" stroke-width="1.5" stroke-linecap="round" stroke-linejoin="round"/>
<path d="M15 1.25H10C9.07003 1.25 8.60504 1.25 8.22354 1.35222C7.18827 1.62962 6.37962 2.43827 6.10222 3.47354C6 3.85504 6 4.32003 6 5.25V15.75C6 17.1307 4.88071 18.25 3.5 18.25H15C17.8284 18.25 19.2426 18.25 20.1213 17.3713C21 16.4926 21 15.0784 21 12.25V7.25C21 4.42157 21 3.00736 20.1213 2.12868C19.2426 1.25 17.8284 1.25 15 1.25Z" stroke="#A2A3A4" stroke-width="1.5" stroke-linecap="round" stroke-linejoin="round"/>
</svg>
