<svg width="22" height="23" viewBox="0 0 22 23" fill="none" xmlns="http://www.w3.org/2000/svg">
<path d="M11 21.5C16.5228 21.5 21 17.0228 21 11.5C21 5.97715 16.5228 1.5 11 1.5C6.52232 1.5 2.77426 4.44289 1.5 8.5H4" stroke="white" stroke-opacity="0.635294" stroke-width="1.5" stroke-linecap="round" stroke-linejoin="round"/>
<path d="M11 7.5V11.5L13 13.5" stroke="white" stroke-opacity="0.635294" stroke-width="1.5" stroke-linecap="round" stroke-linejoin="round"/>
<path d="M1 11.5C1 11.8373 1.0152 12.1709 1.04494 12.5M8 21.5C7.6584 21.3876 7.32471 21.2564 7 21.1078M2.20939 16.5C2.01655 16.1284 1.84453 15.7433 1.69497 15.3462M3.83122 18.8065C4.1369 19.1358 4.46306 19.4441 4.80755 19.7292" stroke="white" stroke-opacity="0.635294" stroke-width="1.5" stroke-linecap="round" stroke-linejoin="round"/>
</svg>
