<svg width="21" height="22" viewBox="0 0 21 22" fill="none" xmlns="http://www.w3.org/2000/svg">
<path d="M9.47059 20.9688C5.47751 20.9687 3.48098 20.9687 2.24049 19.7972C1 18.6256 1 16.74 1 12.9688L1 8.96875C1 5.19751 1 3.3119 2.24049 2.14032C3.48098 0.96875 5.47752 0.96875 9.47059 0.96875L10.5294 0.96875C14.5225 0.96875 16.519 0.96875 17.7595 2.14032C19 3.3119 19 5.19751 19 8.96875M9.5 20.9688H11" stroke="#B3B3B3" stroke-width="1.5" stroke-linecap="round"/>
<path d="M6 5.96875H14" stroke="#B3B3B3" stroke-width="1.5" stroke-linecap="round"/>
<path d="M6 10.9688H11" stroke="#B3B3B3" stroke-width="1.5" stroke-linecap="round"/>
<path d="M15.5 17.5583L14.5978 20.7116C14.5572 20.8699 14.7139 21.0072 14.8659 20.9465L16.8514 20.1536C16.9468 20.1155 17.0532 20.1155 17.1486 20.1536L19.1531 20.9541C19.3014 21.0133 19.456 20.8837 19.4231 20.7276L18.6589 17.4598M20 14.9639C20 13.3097 18.6569 11.9688 17 11.9688C15.3431 11.9688 14 13.3097 14 14.9639C14 16.618 15.3431 17.959 17 17.959C18.6569 17.959 20 16.618 20 14.9639Z" stroke="#B3B3B3" stroke-width="1.5" stroke-linejoin="round"/>
</svg>
