<svg width="24" height="25" viewBox="0 0 24 25" fill="none" xmlns="http://www.w3.org/2000/svg">
<path d="M12 19.9688C13.1 19.9688 14.0417 19.5771 14.825 18.7938C15.6083 18.0104 16 17.0688 16 15.9688V11.9688C16 10.8688 15.6083 9.92708 14.825 9.14375C14.0417 8.36042 13.1 7.96875 12 7.96875C10.9 7.96875 9.95833 8.36042 9.175 9.14375C8.39167 9.92708 8 10.8688 8 11.9688V15.9688C8 17.0688 8.39167 18.0104 9.175 18.7938C9.95833 19.5771 10.9 19.9688 12 19.9688ZM10 16.9688H14V14.9688H10V16.9688ZM10 12.9688H14V10.9688H10V12.9688ZM12 21.9688C10.9167 21.9688 9.91267 21.7021 8.988 21.1688C8.06333 20.6354 7.334 19.9021 6.8 18.9688H4V16.9688H6.1C6.05 16.6354 6.02067 16.3021 6.012 15.9688C6.00333 15.6354 5.99933 15.3021 6 14.9688H4V12.9688H6C6 12.6354 6.004 12.3021 6.012 11.9688C6.02 11.6354 6.04933 11.3021 6.1 10.9688H4V8.96875H6.8C7.03333 8.58542 7.296 8.22708 7.588 7.89375C7.88 7.56042 8.21733 7.26875 8.6 7.01875L7 5.36875L8.4 3.96875L10.55 6.11875C11.0167 5.96875 11.4917 5.89375 11.975 5.89375C12.4583 5.89375 12.9333 5.96875 13.4 6.11875L15.6 3.96875L17 5.36875L15.35 7.01875C15.7333 7.26875 16.0793 7.55608 16.388 7.88075C16.6967 8.20542 16.9673 8.56808 17.2 8.96875H20V10.9688H17.9C17.95 11.3021 17.9793 11.6354 17.988 11.9688C17.9967 12.3021 18.0007 12.6354 18 12.9688H20V14.9688H18C18 15.3021 17.9957 15.6354 17.987 15.9688C17.9783 16.3021 17.9493 16.6354 17.9 16.9688H20V18.9688H17.2C16.6667 19.9021 15.9377 20.6354 15.013 21.1688C14.0883 21.7021 13.084 21.9688 12 21.9688Z" fill="#B3B3B3"/>
</svg>
