<svg width="24" height="25" viewBox="0 0 24 25" fill="none" xmlns="http://www.w3.org/2000/svg">
<path d="M3.00977 11.97V16.46C3.00977 20.95 4.80977 22.75 9.29977 22.75H14.6898C19.1798 22.75 20.9798 20.95 20.9798 16.46V11.97" stroke="#A2A3A4" stroke-width="1.5" stroke-linecap="round" stroke-linejoin="round"/>
<path d="M12.0005 12.75C13.8305 12.75 15.1805 11.26 15.0005 9.43L14.3405 2.75H9.67048L9.00048 9.43C8.82048 11.26 10.1705 12.75 12.0005 12.75Z" stroke="#A2A3A4" stroke-width="1.5" stroke-linecap="round" stroke-linejoin="round"/>
<path d="M18.3098 12.75C20.3298 12.75 21.8098 11.11 21.6098 9.1L21.3298 6.35C20.9698 3.75 19.9698 2.75 17.3498 2.75H14.2998L14.9998 9.76C15.1698 11.41 16.6598 12.75 18.3098 12.75Z" stroke="#A2A3A4" stroke-width="1.5" stroke-linecap="round" stroke-linejoin="round"/>
<path d="M5.64037 12.75C7.29037 12.75 8.78037 11.41 8.94037 9.76L9.16037 7.55L9.64037 2.75H6.59037C3.97037 2.75 2.97037 3.75 2.61037 6.35L2.34037 9.1C2.14037 11.11 3.62037 12.75 5.64037 12.75Z" stroke="#A2A3A4" stroke-width="1.5" stroke-linecap="round" stroke-linejoin="round"/>
<path d="M12 17.75C10.33 17.75 9.5 18.58 9.5 20.25V22.75H14.5V20.25C14.5 18.58 13.67 17.75 12 17.75Z" stroke="#A2A3A4" stroke-width="1.5" stroke-linecap="round" stroke-linejoin="round"/>
</svg>
