<svg width="24" height="17" viewBox="0 0 24 17" fill="none" xmlns="http://www.w3.org/2000/svg">
<path d="M23.8408 5.86658L21.4483 1.0797C21.3602 0.903516 21.2382 0.746416 21.0894 0.617375C20.9405 0.488333 20.7677 0.389878 20.5808 0.327633C20.3939 0.265387 20.1965 0.24057 20 0.254598C19.8035 0.268626 19.6117 0.321226 19.4355 0.409392L17.104 1.5747L12.1924 0.275329C12.0664 0.242533 11.934 0.242533 11.808 0.275329L6.89645 1.5747L4.56489 0.409392C4.38872 0.321226 4.1969 0.268626 4.0004 0.254598C3.8039 0.24057 3.60655 0.265387 3.41964 0.327633C3.23273 0.389878 3.05991 0.488333 2.91105 0.617375C2.7622 0.746416 2.64022 0.903516 2.55208 1.0797L0.159578 5.86564C0.0714119 6.04182 0.0188128 6.23363 0.00478447 6.43013C-0.00924383 6.62664 0.0155735 6.82398 0.0778192 7.01089C0.140065 7.1978 0.23852 7.37062 0.367561 7.51948C0.496603 7.66834 0.653703 7.79032 0.829891 7.87845L3.36114 9.14502L8.56333 12.8603C8.64003 12.9148 8.72618 12.9545 8.81739 12.9775L14.8174 14.4775C14.943 14.509 15.0747 14.5075 15.1996 14.473C15.3244 14.4385 15.4382 14.3722 15.5299 14.2806L20.6927 9.11689L23.1696 7.87845C23.5252 7.70045 23.7955 7.38854 23.9212 7.01128C24.0469 6.63402 24.0177 6.22228 23.8399 5.86658H23.8408ZM18.6949 8.99502L15.469 6.41127C15.3244 6.29553 15.1422 6.23734 14.9574 6.2479C14.7725 6.25846 14.5981 6.33702 14.4677 6.46845C12.798 8.15033 10.9371 7.93752 9.7502 7.18752L13.804 3.25002H16.7861L19.3371 8.35095L18.6949 8.99502ZM3.89364 1.75002L5.8127 2.70814L3.41552 7.49408L1.5002 6.53689L3.89364 1.75002ZM14.7686 12.9185L9.32083 11.5572L4.70833 8.26283L7.33333 3.01283L12.0002 1.77627L12.919 2.01908L8.7002 6.11408L8.6927 6.12252C8.5339 6.28132 8.41278 6.47376 8.33828 6.68563C8.26379 6.89751 8.23782 7.1234 8.26229 7.34665C8.28677 7.5699 8.36106 7.7848 8.47969 7.9755C8.59832 8.1662 8.75826 8.32783 8.9477 8.44845C10.8752 9.67939 13.2011 9.4797 15.033 7.9797L17.6252 10.0619L14.7686 12.9185ZM20.5811 7.49314L18.1886 2.71189L20.1068 1.75002L22.5002 6.53689L20.5811 7.49314ZM12.3546 16.181C12.3141 16.3431 12.2206 16.487 12.089 16.5899C11.9573 16.6928 11.7951 16.7488 11.628 16.7491C11.5664 16.7491 11.505 16.7416 11.4452 16.7266L7.53864 15.7497C7.44728 15.7271 7.36105 15.6874 7.28458 15.6325L4.81427 13.8681C4.66237 13.7489 4.56234 13.5756 4.53499 13.3845C4.50764 13.1933 4.55509 12.9989 4.66745 12.8419C4.77981 12.6848 4.94842 12.5771 5.13818 12.5413C5.32794 12.5054 5.52422 12.5442 5.68614 12.6494L8.0402 14.3313L11.8127 15.2725C12.0056 15.3208 12.1715 15.4437 12.2738 15.6142C12.3761 15.7848 12.4065 15.9889 12.3583 16.1819L12.3546 16.181Z" fill="#A2A3A4"/>
</svg>
