<svg width="17" height="16" viewBox="0 0 17 16" fill="none" xmlns="http://www.w3.org/2000/svg">
<path d="M15.8754 3.03757e-09H10.8754C10.7797 -9.4326e-06 10.6852 0.0219638 10.5994 0.0642252C10.5135 0.106487 10.4385 0.167907 10.3801 0.24375L5.38008 6.74453L4.6254 5.99141C4.50931 5.87519 4.37145 5.78299 4.2197 5.72008C4.06795 5.65718 3.90529 5.6248 3.74102 5.6248C3.57675 5.6248 3.41409 5.65718 3.26235 5.72008C3.1106 5.78299 2.97274 5.87519 2.85665 5.99141L1.86524 6.98359C1.74914 7.09967 1.65704 7.23748 1.5942 7.38916C1.53137 7.54083 1.49902 7.7034 1.49902 7.86758C1.49902 8.03175 1.53137 8.19432 1.5942 8.346C1.65704 8.49767 1.74914 8.63549 1.86524 8.75156L3.42774 10.3141L1.24024 12.5016C1.12414 12.6176 1.03204 12.7555 0.969201 12.9071C0.906365 13.0588 0.874023 13.2214 0.874023 13.3855C0.874023 13.5497 0.906365 13.7123 0.969201 13.864C1.03204 14.0156 1.12414 14.1535 1.24024 14.2695L2.23165 15.2602C2.46604 15.4944 2.78386 15.626 3.11524 15.626C3.44662 15.626 3.76444 15.4944 3.99883 15.2602L6.18634 13.0727L7.74884 14.6352C7.86493 14.7514 8.00279 14.8436 8.15453 14.9065C8.30628 14.9694 8.46894 15.0018 8.63321 15.0018C8.79748 15.0018 8.96014 14.9694 9.11189 14.9065C9.26363 14.8436 9.40149 14.7514 9.51758 14.6352L10.509 13.643C10.6251 13.5269 10.7172 13.3891 10.78 13.2374C10.8429 13.0857 10.8752 12.9232 10.8752 12.759C10.8752 12.5948 10.8429 12.4322 10.78 12.2806C10.7172 12.1289 10.6251 11.9911 10.509 11.875L9.75587 11.1219L16.2566 6.12187C16.3327 6.06333 16.3942 5.98806 16.4365 5.90189C16.4788 5.81572 16.5006 5.72098 16.5004 5.625V0.625C16.5004 0.45924 16.4345 0.300269 16.3173 0.183058C16.2001 0.0658481 16.0412 3.03757e-09 15.8754 3.03757e-09ZM3.1168 14.375L2.1254 13.3844L4.3129 11.1969L5.30352 12.1875L3.1168 14.375ZM8.63321 13.75L2.7504 7.86797L3.74258 6.875L9.6254 12.7586L8.63321 13.75ZM15.2504 5.31719L8.86446 10.2297L8.00977 9.375L11.9426 5.44219C12.0598 5.32491 12.1255 5.16589 12.1255 5.00011C12.1254 4.83434 12.0595 4.67537 11.9422 4.5582C11.8249 4.44103 11.6659 4.37525 11.5001 4.37532C11.3343 4.37539 11.1754 4.44132 11.0582 4.55859L7.1254 8.49062L6.27149 7.63594L11.1832 1.25H15.2504V5.31719Z" fill="#A2A3A4"/>
</svg>
